<?xml version="1.0" encoding="UTF-8"?>
<svg id="Layer_2" data-name="Layer 2" xmlns="http://www.w3.org/2000/svg" viewBox="0 0 1155.22 1151.94">
  <defs>
    <style>
      .cls-1 {
        fill: #ffb43e;
        stroke: #875c22;
      }

      .cls-1, .cls-2, .cls-3, .cls-4, .cls-5, .cls-6, .cls-7 {
        stroke-miterlimit: 10;
      }

      .cls-2 {
        stroke: #422205;
        stroke-width: 2px;
      }

      .cls-2, .cls-3 {
        stroke-linecap: round;
      }

      .cls-2, .cls-8 {
        fill: #624620;
      }

      .cls-3 {
        fill: none;
      }

      .cls-3, .cls-5 {
        stroke: #435629;
        stroke-width: 4px;
      }

      .cls-9 {
        fill: #422205;
      }

      .cls-4 {
        stroke: #c17830;
        stroke-width: .5px;
      }

      .cls-4, .cls-10 {
        fill: #f99a2c;
      }

      .cls-11 {
        fill: #ffb548;
      }

      .cls-12, .cls-7 {
        fill: #ff7bac;
      }

      .cls-13 {
        fill: #9cb15b;
      }

      .cls-14 {
        fill: #91703d;
      }

      .cls-5 {
        fill: #87ad5e;
      }

      .cls-6 {
        fill: #97d7ff;
        stroke: #27557a;
      }

      .cls-7 {
        stroke: #873c5b;
      }

      .cls-15 {
        fill: #ffb974;
      }
    </style>
  </defs>
  <g id="Layer_1-2" data-name="Layer 1">
    <g>
      <g id="Background">
        <g>
          <rect class="cls-13" x="40.25" y="39.67" width="1073" height="1073"/>
          <path class="cls-8" d="M1109.75,43.17v1066H43.75V43.17h1066M1116.75,36.17H36.75v1080h1080V36.17h0Z"/>
        </g>
        <path class="cls-5" d="M1086.01,301.21c.31-14.81-4.7-28.32-22.06-28.08-2.71,0-6.15.52-8.56.22-7.66-1.01,2.83-12.43-3.88-26.56-4.66-10.7-17.23-16.51-28.72-15.23-3.44.23-7.31,1.52-10.42,2.38-5.46,1.58-6.28-.68-6.87-6.21-.36-3.71-1-7.52-2.48-10.93-2.6-6.28-7.23-11.39-13.05-14.9-22.76-13.66-57.8-.81-59.27,26.63-.41,2.67-.99,4.77-2.33,6.01-2.27,2.14-6.34,1.79-9.64,1.99-12.34.11-24.85,7.7-28.25,19.48-4.59,14.49,6.55,24.2-1.26,27.38-3.61,1.46-8.67,1.82-12.27,4.4-8.87,6.09-9.76,21.13-5.41,30.49,2.08,4.42,5.31,8.44,8.36,11.95,2.55,2.85,5.17,5.68,8.1,7.8,10.32,9.11,52.35,13.71,79.66,13.44,19.82.2,44.78-.54,61.38-3.01,12.26-1.75,23.53-4.83,33.9-11.6,12.12-8.19,22.65-20.7,23.08-35.54v-.11Z"/>
        <path class="cls-5" d="M315.94,277.76c.31-14.81-4.7-28.32-22.06-28.08-2.71,0-6.15.52-8.56.22-7.66-1.01,2.83-12.43-3.88-26.56-4.66-10.7-17.23-16.51-28.72-15.23-3.44.23-7.31,1.52-10.42,2.38-5.46,1.58-6.28-.68-6.87-6.21-.36-3.71-1-7.52-2.48-10.93-2.6-6.28-7.23-11.39-13.05-14.9-22.76-13.66-57.8-.81-59.27,26.63-.41,2.67-.99,4.77-2.33,6.01-2.27,2.14-6.34,1.79-9.64,1.99-12.34.11-24.85,7.7-28.25,19.48-4.59,14.49,6.55,24.2-1.26,27.38-3.61,1.46-8.67,1.82-12.27,4.4-8.87,6.09-9.76,21.13-5.41,30.49,2.08,4.42,5.31,8.44,8.36,11.95,2.55,2.85,5.17,5.68,8.1,7.8,10.32,9.11,52.35,13.71,79.66,13.44,19.82.2,44.78-.54,61.38-3.01,12.26-1.75,23.53-4.83,33.9-11.6,12.12-8.19,22.65-20.7,23.08-35.54v-.11Z"/>
        <path class="cls-5" d="M295.87,920.22c.31-14.81-4.7-28.32-22.06-28.08-2.71,0-6.15.52-8.56.22-7.66-1.01,2.83-12.43-3.88-26.56-4.66-10.7-17.23-16.51-28.72-15.23-3.44.23-7.31,1.52-10.42,2.38-5.46,1.58-6.28-.68-6.87-6.21-.36-3.71-1-7.52-2.48-10.93-2.6-6.28-7.23-11.39-13.05-14.9-22.76-13.66-57.8-.81-59.27,26.63-.41,2.67-.99,4.77-2.33,6.01-2.27,2.14-6.34,1.79-9.64,1.99-12.34.11-24.85,7.7-28.25,19.48-4.59,14.49,6.55,24.2-1.26,27.38-3.61,1.46-8.67,1.82-12.27,4.4-8.87,6.09-9.76,21.13-5.41,30.49,2.08,4.42,5.31,8.44,8.36,11.95,2.55,2.85,5.17,5.68,8.1,7.8,10.32,9.11,52.35,13.71,79.66,13.44,19.82.2,44.78-.54,61.38-3.01,12.26-1.75,23.53-4.83,33.9-11.6,12.12-8.19,22.65-20.7,23.08-35.54v-.11Z"/>
        <path class="cls-5" d="M1086.01,929c.31-14.81-4.7-28.32-22.06-28.08-2.71,0-6.15.52-8.56.22-7.66-1.01,2.83-12.43-3.88-26.56-4.66-10.7-17.23-16.51-28.72-15.23-3.44.23-7.31,1.52-10.42,2.38-5.46,1.58-6.28-.68-6.87-6.21-.36-3.71-1-7.52-2.48-10.93-2.6-6.28-7.23-11.39-13.05-14.9-22.76-13.66-57.8-.81-59.27,26.63-.41,2.67-.99,4.77-2.33,6.01-2.27,2.14-6.34,1.79-9.64,1.99-12.34.11-24.85,7.7-28.25,19.48-4.59,14.49,6.55,24.2-1.26,27.38-3.61,1.46-8.67,1.82-12.27,4.4-8.87,6.09-9.76,21.13-5.41,30.49,2.08,4.42,5.31,8.44,8.36,11.95,2.55,2.85,5.17,5.68,8.1,7.8,10.32,9.11,52.35,13.71,79.66,13.44,19.82.2,44.78-.54,61.38-3.01,12.26-1.75,23.53-4.83,33.9-11.6,12.12-8.19,22.65-20.7,23.08-35.54v-.11Z"/>
        <path class="cls-5" d="M448.93,197.65c-2.94-2.08-4.72-4.81-4.72-7.79,0-6.55,8.59-11.86,19.2-11.86,1.06,0,2.09.05,3.1.16.68-7.83,11.17-14.06,24.02-14.06,12.68,0,23.07,6.06,23.99,13.75.83-.07,1.68-.11,2.55-.11,10.6,0,19.2,5.31,19.2,11.86,0,3.22-2.07,6.13-5.44,8.27,5.56,2.15,9.27,6.05,9.27,10.51,0,6.78-8.59,12.27-19.2,12.27-.68,0-1.35-.02-2-.07-4.11,4.56-11.99,7.64-21.03,7.64-2.36,0-4.63-.21-6.78-.6-2.1.37-4.32.57-6.62.57-9.25,0-17.28-3.22-21.3-7.95-1.57.27-3.22.41-4.93.41-10.6,0-19.2-5.5-19.2-12.27,0-4.62,3.99-8.64,9.89-10.74Z"/>
        <path class="cls-5" d="M616.9,174.42c-2.94-2.08-4.72-4.81-4.72-7.79,0-6.55,8.59-11.86,19.2-11.86,1.06,0,2.09.05,3.1.16.68-7.83,11.17-14.06,24.02-14.06,12.68,0,23.07,6.06,23.99,13.75.83-.07,1.68-.11,2.55-.11,10.6,0,19.2,5.31,19.2,11.86,0,3.22-2.07,6.13-5.44,8.27,5.56,2.15,9.27,6.05,9.27,10.51,0,6.78-8.59,12.27-19.2,12.27-.68,0-1.35-.02-2-.07-4.11,4.56-11.99,7.64-21.03,7.64-2.36,0-4.63-.21-6.78-.6-2.1.37-4.32.57-6.62.57-9.25,0-17.28-3.22-21.3-7.95-1.57.27-3.22.41-4.93.41-10.6,0-19.2-5.5-19.2-12.27,0-4.62,3.99-8.64,9.89-10.74Z"/>
        <path class="cls-5" d="M916.65,511.61c-2.94-2.08-4.72-4.81-4.72-7.79,0-6.55,8.59-11.86,19.2-11.86,1.06,0,2.09.05,3.1.16.68-7.83,11.17-14.06,24.02-14.06,12.68,0,23.07,6.06,23.99,13.75.83-.07,1.68-.11,2.55-.11,10.6,0,19.2,5.31,19.2,11.86,0,3.22-2.07,6.13-5.44,8.27,5.56,2.15,9.27,6.05,9.27,10.51,0,6.78-8.59,12.27-19.2,12.27-.68,0-1.35-.02-2-.07-4.11,4.56-11.99,7.64-21.03,7.64-2.36,0-4.63-.21-6.78-.6-2.1.37-4.32.57-6.62.57-9.25,0-17.28-3.22-21.3-7.95-1.57.27-3.22.41-4.93.41-10.6,0-19.2-5.5-19.2-12.27,0-4.62,3.99-8.64,9.89-10.74Z"/>
        <path class="cls-5" d="M967.15,704.98c-2.94-2.08-4.72-4.81-4.72-7.79,0-6.55,8.59-11.86,19.2-11.86,1.06,0,2.09.05,3.1.16.68-7.83,11.17-14.06,24.02-14.06,12.68,0,23.07,6.06,23.99,13.75.83-.07,1.68-.11,2.55-.11,10.6,0,19.2,5.31,19.2,11.86,0,3.22-2.07,6.13-5.44,8.27,5.56,2.15,9.27,6.05,9.27,10.51,0,6.78-8.59,12.27-19.2,12.27-.68,0-1.35-.02-2-.07-4.11,4.56-11.99,7.64-21.03,7.64-2.36,0-4.63-.21-6.78-.6-2.1.37-4.32.57-6.62.57-9.25,0-17.28-3.22-21.3-7.95-1.57.27-3.22.41-4.93.41-10.6,0-19.2-5.5-19.2-12.27,0-4.62,3.99-8.64,9.89-10.74Z"/>
        <path class="cls-5" d="M613.91,984.48c-2.94-2.08-4.72-4.81-4.72-7.79,0-6.55,8.59-11.86,19.2-11.86,1.06,0,2.09.05,3.1.16.68-7.83,11.17-14.06,24.02-14.06,12.68,0,23.07,6.06,23.99,13.75.83-.07,1.68-.11,2.55-.11,10.6,0,19.2,5.31,19.2,11.86,0,3.22-2.07,6.13-5.44,8.27,5.56,2.15,9.27,6.05,9.27,10.51,0,6.78-8.59,12.27-19.2,12.27-.68,0-1.35-.02-2-.07-4.11,4.56-11.99,7.64-21.03,7.64-2.36,0-4.63-.21-6.78-.6-2.1.37-4.32.57-6.62.57-9.25,0-17.28-3.22-21.3-7.95-1.57.27-3.22.41-4.93.41-10.6,0-19.2-5.5-19.2-12.27,0-4.62,3.99-8.64,9.89-10.74Z"/>
        <path class="cls-5" d="M402.73,1030.61c-2.94-2.08-4.72-4.81-4.72-7.79,0-6.55,8.59-11.86,19.2-11.86,1.06,0,2.09.05,3.1.16.68-7.83,11.17-14.06,24.02-14.06s23.07,6.06,23.99,13.75c.83-.07,1.68-.11,2.55-.11,10.6,0,19.2,5.31,19.2,11.86,0,3.22-2.07,6.13-5.44,8.27,5.56,2.15,9.27,6.05,9.27,10.51,0,6.78-8.59,12.27-19.2,12.27-.68,0-1.35-.02-2-.07-4.11,4.56-11.99,7.64-21.03,7.64-2.36,0-4.63-.21-6.78-.6-2.1.37-4.32.57-6.62.57-9.25,0-17.28-3.22-21.3-7.95-1.57.27-3.22.41-4.93.41-10.6,0-19.2-5.5-19.2-12.27,0-4.62,3.99-8.64,9.89-10.74Z"/>
        <path class="cls-5" d="M88.74,676.54c-2.94-2.08-4.72-4.81-4.72-7.79,0-6.55,8.59-11.86,19.2-11.86,1.06,0,2.09.05,3.1.16.68-7.83,11.17-14.06,24.02-14.06,12.68,0,23.07,6.06,23.99,13.75.83-.07,1.68-.11,2.55-.11,10.6,0,19.2,5.31,19.2,11.86,0,3.22-2.07,6.13-5.44,8.27,5.56,2.15,9.27,6.05,9.27,10.51,0,6.78-8.59,12.27-19.2,12.27-.68,0-1.35-.02-2-.07-4.11,4.56-11.99,7.64-21.03,7.64-2.36,0-4.63-.21-6.78-.6-2.1.37-4.32.57-6.62.57-9.25,0-17.28-3.22-21.3-7.95-1.57.27-3.22.41-4.93.41-10.6,0-19.2-5.5-19.2-12.27,0-4.62,3.99-8.64,9.89-10.74Z"/>
        <path class="cls-5" d="M146.73,495.61c-2.94-2.08-4.72-4.81-4.72-7.79,0-6.55,8.59-11.86,19.2-11.86,1.06,0,2.09.05,3.1.16.68-7.83,11.17-14.06,24.02-14.06,12.68,0,23.07,6.06,23.99,13.75.83-.07,1.68-.11,2.55-.11,10.6,0,19.2,5.31,19.2,11.86,0,3.22-2.07,6.13-5.44,8.27,5.56,2.15,9.27,6.05,9.27,10.51,0,6.78-8.59,12.27-19.2,12.27-.68,0-1.35-.02-2-.07-4.11,4.56-11.99,7.64-21.03,7.64-2.36,0-4.63-.21-6.78-.6-2.1.37-4.32.57-6.62.57-9.25,0-17.28-3.22-21.3-7.95-1.57.27-3.22.41-4.93.41-10.6,0-19.2-5.5-19.2-12.27,0-4.62,3.99-8.64,9.89-10.74Z"/>
        <g>
          <path class="cls-3" d="M581.09,212.44c5.92-2.04,7.77,9.62,7.77,9.62,0,0-.37-17.95,1.85-17.02"/>
          <path class="cls-3" d="M588.86,222.06s7.59-16.28,13.69-10.92"/>
        </g>
        <g>
          <path class="cls-3" d="M179.82,614.16c9.3-3.2,12.2,15.11,12.2,15.11,0,0-.58-28.18,2.91-26.73"/>
          <path class="cls-3" d="M192.02,629.27s11.91-25.57,21.5-17.14"/>
        </g>
        <g>
          <path class="cls-3" d="M1004.83,600.4c5.92-2.04,7.77,9.62,7.77,9.62,0,0-.37-17.95,1.85-17.02"/>
          <path class="cls-3" d="M1012.6,610.02s7.59-16.28,13.69-10.92"/>
        </g>
        <g>
          <path class="cls-3" d="M706.13,580.65c5.92-2.04,7.77,9.62,7.77,9.62,0,0-.37-17.95,1.85-17.02"/>
          <path class="cls-3" d="M713.9,590.27s7.59-16.28,13.69-10.92"/>
        </g>
        <g>
          <path class="cls-3" d="M480.41,954.02c5.92-2.04,7.77,9.62,7.77,9.62,0,0-.37-17.95,1.85-17.02"/>
          <path class="cls-3" d="M488.18,963.64s7.59-16.28,13.69-10.92"/>
        </g>
        <g>
          <path class="cls-3" d="M554.45,1019.5c5.92-2.04,7.77,9.62,7.77,9.62,0,0-.37-17.95,1.85-17.02"/>
          <path class="cls-3" d="M562.22,1029.12s7.59-16.28,13.69-10.92"/>
        </g>
        <g>
          <path class="cls-3" d="M766.03,978.2c5.92-2.04,7.77,9.62,7.77,9.62,0,0-.37-17.95,1.85-17.02"/>
          <path class="cls-3" d="M773.8,987.82s7.59-16.28,13.69-10.92"/>
        </g>
        <g>
          <path class="cls-6" d="M540.73,1053.74c-.82-2.53-3.55-3.92-6.08-3.1-.94.3-2.29,1.06-3.58,2.01.51-1.52.8-3.04.8-4.03,0-2.67-2.16-4.83-4.83-4.83s-4.83,2.16-4.83,4.83c0,.98.3,2.5.8,4.03-1.29-.95-2.65-1.7-3.58-2.01-2.53-.82-5.26.56-6.08,3.1s.56,5.26,3.1,6.08c.94.3,2.47.49,4.08.48-1.31.94-2.44,1.99-3.02,2.79-1.57,2.16-1.09,5.17,1.07,6.74,2.16,1.57,5.17,1.09,6.74-1.07.58-.8,1.23-2.2,1.72-3.73.49,1.53,1.14,2.94,1.72,3.73,1.57,2.16,4.58,2.63,6.74,1.07,2.16-1.57,2.63-4.58,1.07-6.74-.58-.8-1.71-1.85-3.02-2.79,1.61.01,3.14-.18,4.08-.48,2.53-.82,3.92-3.55,3.1-6.08ZM527.3,1057.83c.01.09.02.18.04.26.03.08.08.16.12.24-.08.04-.16.07-.23.12s-.13.12-.19.19c-.06-.06-.12-.13-.19-.19s-.16-.08-.23-.12c.04-.08.09-.15.12-.24.03-.08.03-.17.04-.26.09.01.17.04.26.04s.17-.03.26-.04Z"/>
          <circle class="cls-10" cx="527.04" cy="1058.19" r="3.2"/>
        </g>
        <g>
          <path class="cls-12" d="M112.54,154.32c0,3.03-2.46,10.51-5.48,10.51s-5.48-7.48-5.48-10.51,2.46-5.48,5.48-5.48,5.48,2.46,5.48,5.48Z"/>
          <path class="cls-12" d="M98.41,156.62c2.88.94,9.23,5.58,8.3,8.46-.94,2.88-8.81,2.9-11.69,1.97s-4.46-4.03-3.52-6.91c.94-2.88,4.03-4.46,6.91-3.52Z"/>
          <path class="cls-12" d="M96.23,170.77c1.78-2.45,8.16-7.06,10.61-5.28s.04,9.27-1.74,11.72c-1.78,2.45-5.21,2.99-7.66,1.21-2.45-1.78-2.99-5.21-1.21-7.66Z"/>
          <path class="cls-12" d="M109.01,177.21c-1.78-2.45-4.19-9.94-1.74-11.72,2.45-1.78,8.83,2.83,10.61,5.28,1.78,2.45,1.24,5.88-1.21,7.66s-5.88,1.24-7.66-1.21Z"/>
          <path class="cls-12" d="M119.09,167.05c-2.88.94-10.75.91-11.69-1.97s5.42-7.53,8.3-8.46c2.88-.94,5.97.64,6.91,3.52s-.64,5.97-3.52,6.91Z"/>
          <circle class="cls-10" cx="107.05" cy="165.2" r="3.64"/>
        </g>
        <g>
          <path class="cls-12" d="M137.58,432.58c-1.37,2.89-7.09,8.9-9.98,7.53s-1.84-9.61-.47-12.5,4.82-4.12,7.71-2.75,4.12,4.82,2.75,7.71Z"/>
          <path class="cls-12" d="M123.07,428.38c2.32,2.2,6.28,9.5,4.08,11.82-2.2,2.32-9.71-1.22-12.03-3.41-2.32-2.2-2.43-5.86-.23-8.18,2.2-2.32,5.86-2.43,8.18-.23Z"/>
          <path class="cls-12" d="M114.59,440.87c2.81-1.53,10.97-3.03,12.5-.23,1.53,2.81-4.16,8.86-6.96,10.39-2.81,1.53-6.32.5-7.85-2.31s-.5-6.32,2.31-7.85Z"/>
          <path class="cls-12" d="M123.85,452.8c-.59-3.14.51-11.37,3.65-11.96,3.14-.59,7.14,6.69,7.73,9.83.59,3.14-1.48,6.16-4.62,6.75-3.14.59-6.16-1.48-6.75-4.62Z"/>
          <path class="cls-12" d="M138.06,447.67c-3.17-.41-10.66-4-10.25-7.16s8.57-4.72,11.74-4.31c3.17.41,5.4,3.31,4.99,6.48s-3.31,5.4-6.48,4.99Z"/>
          <circle class="cls-10" cx="127.43" cy="440.46" r="3.84"/>
        </g>
        <g>
          <path class="cls-6" d="M905.91,1052.21c-.77-2.37-3.32-3.67-5.7-2.9-.88.29-2.15.99-3.36,1.88.47-1.43.75-2.85.75-3.77,0-2.5-2.02-4.52-4.52-4.52s-4.52,2.02-4.52,4.52c0,.92.28,2.35.75,3.77-1.21-.89-2.48-1.6-3.36-1.88-2.37-.77-4.92.53-5.7,2.9-.77,2.37.53,4.92,2.9,5.7.88.29,2.32.46,3.82.45-1.22.88-2.28,1.86-2.83,2.61-1.47,2.02-1.02,4.85,1,6.31,2.02,1.47,4.85,1.02,6.31-1,.54-.75,1.15-2.06,1.61-3.5.46,1.43,1.07,2.75,1.61,3.5,1.47,2.02,4.29,2.47,6.31,1s2.47-4.29,1-6.31c-.54-.75-1.6-1.73-2.83-2.61,1.5.01,2.94-.17,3.82-.45,2.37-.77,3.67-3.32,2.9-5.7ZM893.33,1056.03c.01.08.01.17.04.24s.07.15.11.22c-.07.04-.15.07-.22.11-.07.05-.12.12-.18.17-.06-.06-.11-.13-.18-.17-.07-.05-.15-.08-.22-.11.04-.07.09-.14.11-.22.03-.08.03-.16.04-.24.08.01.16.04.24.04s.16-.02.25-.04Z"/>
          <circle class="cls-4" cx="893.09" cy="1056.37" r="3"/>
        </g>
        <g>
          <path class="cls-6" d="M826.12,949.74c-.77-2.37-3.32-3.67-5.7-2.9-.88.29-2.15.99-3.36,1.88.47-1.43.75-2.85.75-3.77,0-2.5-2.02-4.52-4.52-4.52s-4.52,2.02-4.52,4.52c0,.92.28,2.35.75,3.77-1.21-.89-2.48-1.6-3.36-1.88-2.37-.77-4.92.53-5.7,2.9-.77,2.37.53,4.92,2.9,5.7.88.29,2.32.46,3.82.45-1.22.88-2.28,1.86-2.83,2.61-1.47,2.02-1.02,4.85,1,6.31,2.02,1.47,4.85,1.02,6.31-1,.54-.75,1.15-2.06,1.61-3.5.46,1.43,1.07,2.75,1.61,3.5,1.47,2.02,4.29,2.47,6.31,1s2.47-4.29,1-6.31c-.54-.75-1.6-1.73-2.83-2.61,1.5.01,2.94-.17,3.82-.45,2.37-.77,3.67-3.32,2.9-5.7ZM813.54,953.56c.01.08.01.17.04.24s.07.15.11.22c-.07.04-.15.07-.22.11-.07.05-.12.12-.18.17-.06-.06-.11-.13-.18-.17-.07-.05-.15-.08-.22-.11.04-.07.09-.14.11-.22.03-.08.03-.16.04-.24.08.01.16.04.24.04s.16-.02.25-.04Z"/>
          <circle class="cls-4" cx="813.3" cy="953.9" r="3"/>
        </g>
        <g>
          <path class="cls-6" d="M423.96,960.33c-.77-2.37-3.32-3.67-5.7-2.9-.88.29-2.15.99-3.36,1.88.47-1.43.75-2.85.75-3.77,0-2.5-2.02-4.52-4.52-4.52s-4.52,2.02-4.52,4.52c0,.92.28,2.35.75,3.77-1.21-.89-2.48-1.6-3.36-1.88-2.37-.77-4.92.53-5.7,2.9-.77,2.37.53,4.92,2.9,5.7.88.29,2.32.46,3.82.45-1.22.88-2.28,1.86-2.83,2.61-1.47,2.02-1.02,4.85,1,6.31,2.02,1.47,4.85,1.02,6.31-1,.54-.75,1.15-2.06,1.61-3.5.46,1.43,1.07,2.75,1.61,3.5,1.47,2.02,4.29,2.47,6.31,1s2.47-4.29,1-6.31c-.54-.75-1.6-1.73-2.83-2.61,1.5.01,2.94-.17,3.82-.45,2.37-.77,3.67-3.32,2.9-5.7ZM411.39,964.16c.01.08.01.17.04.24s.07.15.11.22c-.07.04-.15.07-.22.11-.07.05-.12.12-.18.17-.06-.06-.11-.13-.18-.17-.07-.05-.15-.08-.22-.11.04-.07.09-.14.11-.22.03-.08.03-.16.04-.24.08.01.16.04.24.04s.16-.02.25-.04Z"/>
          <circle class="cls-4" cx="411.14" cy="964.49" r="3"/>
        </g>
        <g>
          <path class="cls-6" d="M474.04,601.8c-.77-2.37-3.32-3.67-5.7-2.9-.88.29-2.15.99-3.36,1.88.47-1.43.75-2.85.75-3.77,0-2.5-2.02-4.52-4.52-4.52s-4.52,2.02-4.52,4.52c0,.92.28,2.35.75,3.77-1.21-.89-2.48-1.6-3.36-1.88-2.37-.77-4.92.53-5.7,2.9-.77,2.37.53,4.92,2.9,5.7.88.29,2.32.46,3.82.45-1.22.88-2.28,1.86-2.83,2.61-1.47,2.02-1.02,4.85,1,6.31,2.02,1.47,4.85,1.02,6.31-1,.54-.75,1.15-2.06,1.61-3.5.46,1.43,1.07,2.75,1.61,3.5,1.47,2.02,4.29,2.47,6.31,1s2.47-4.29,1-6.31c-.54-.75-1.6-1.73-2.83-2.61,1.5.01,2.94-.17,3.82-.45,2.37-.77,3.67-3.32,2.9-5.7ZM461.47,605.63c.01.08.01.17.04.24s.07.15.11.22c-.07.04-.15.07-.22.11-.07.05-.12.12-.18.17-.06-.06-.11-.13-.18-.17-.07-.05-.15-.08-.22-.11.04-.07.09-.14.11-.22.03-.08.03-.16.04-.24.08.01.16.04.24.04s.16-.02.25-.04Z"/>
          <circle class="cls-4" cx="461.22" cy="605.97" r="3"/>
        </g>
        <g>
          <path class="cls-6" d="M135.83,568.12c-1.27-3.91-5.47-6.05-9.38-4.78-1.45.47-3.53,1.63-5.53,3.1.78-2.35,1.24-4.7,1.24-6.21,0-4.11-3.33-7.44-7.44-7.44s-7.44,3.33-7.44,7.44c0,1.52.46,3.86,1.24,6.21-2-1.47-4.08-2.63-5.53-3.1-3.91-1.27-8.11.87-9.38,4.78-1.27,3.91.87,8.11,4.78,9.38,1.44.47,3.81.76,6.29.74-2.01,1.44-3.76,3.07-4.65,4.3-2.42,3.33-1.68,7.98,1.65,10.4,3.33,2.42,7.98,1.68,10.4-1.65.89-1.23,1.9-3.39,2.65-5.76.75,2.36,1.76,4.53,2.65,5.76,2.42,3.33,7.07,4.06,10.4,1.65s4.06-7.07,1.65-10.4c-.89-1.23-2.64-2.86-4.65-4.3,2.48.02,4.85-.27,6.29-.74,3.91-1.27,6.05-5.47,4.78-9.38ZM115.12,574.43c.02.13.02.27.07.4s.12.24.18.36c-.12.06-.25.11-.36.19-.11.08-.19.19-.29.29-.1-.1-.18-.21-.29-.29-.11-.08-.24-.13-.36-.19.06-.12.14-.23.18-.36.04-.13.05-.27.07-.4.13.02.27.06.4.06s.27-.04.4-.06Z"/>
          <circle class="cls-4" cx="114.72" cy="574.98" r="4.94"/>
        </g>
        <g>
          <path class="cls-6" d="M517,111.21c-.77-2.37-3.32-3.67-5.7-2.9-.88.29-2.15.99-3.36,1.88.47-1.43.75-2.85.75-3.77,0-2.5-2.02-4.52-4.52-4.52s-4.52,2.02-4.52,4.52c0,.92.28,2.35.75,3.77-1.21-.89-2.48-1.6-3.36-1.88-2.37-.77-4.92.53-5.7,2.9-.77,2.37.53,4.92,2.9,5.7.88.29,2.32.46,3.82.45-1.22.88-2.28,1.86-2.83,2.61-1.47,2.02-1.02,4.85,1,6.31,2.02,1.47,4.85,1.02,6.31-1,.54-.75,1.15-2.06,1.61-3.5.46,1.43,1.07,2.75,1.61,3.5,1.47,2.02,4.29,2.47,6.31,1s2.47-4.29,1-6.31c-.54-.75-1.6-1.73-2.83-2.61,1.5.01,2.94-.17,3.82-.45,2.37-.77,3.67-3.32,2.9-5.7ZM504.43,115.04c.01.08.01.17.04.24s.07.15.11.22c-.07.04-.15.07-.22.11-.07.05-.12.12-.18.17-.06-.06-.11-.13-.18-.17-.07-.05-.15-.08-.22-.11.04-.07.09-.14.11-.22.03-.08.03-.16.04-.24.08.01.16.04.24.04s.16-.02.25-.04Z"/>
          <circle class="cls-4" cx="504.18" cy="115.38" r="3"/>
        </g>
        <g>
          <path class="cls-6" d="M699.19,96.55c-.77-2.37-3.32-3.67-5.7-2.9-.88.29-2.15.99-3.36,1.88.47-1.43.75-2.85.75-3.77,0-2.5-2.02-4.52-4.52-4.52s-4.52,2.02-4.52,4.52c0,.92.28,2.35.75,3.77-1.21-.89-2.48-1.6-3.36-1.88-2.37-.77-4.92.53-5.7,2.9-.77,2.37.53,4.92,2.9,5.7.88.29,2.32.46,3.82.45-1.22.88-2.28,1.86-2.83,2.61-1.47,2.02-1.02,4.85,1,6.31,2.02,1.47,4.85,1.02,6.31-1,.54-.75,1.15-2.06,1.61-3.5.46,1.43,1.07,2.75,1.61,3.5,1.47,2.02,4.29,2.47,6.31,1s2.47-4.29,1-6.31c-.54-.75-1.6-1.73-2.83-2.61,1.5.01,2.94-.17,3.82-.45,2.37-.77,3.67-3.32,2.9-5.7ZM686.61,100.38c.01.08.01.17.04.24s.07.15.11.22c-.07.04-.15.07-.22.11-.07.05-.12.12-.18.17-.06-.06-.11-.13-.18-.17-.07-.05-.15-.08-.22-.11.04-.07.09-.14.11-.22.03-.08.03-.16.04-.24.08.01.16.04.24.04s.16-.02.25-.04Z"/>
          <circle class="cls-4" cx="686.37" cy="100.71" r="3"/>
        </g>
        <g>
          <path class="cls-6" d="M1049.59,161.92c-.77-2.37-3.32-3.67-5.7-2.9-.88.29-2.15.99-3.36,1.88.47-1.43.75-2.85.75-3.77,0-2.5-2.02-4.52-4.52-4.52s-4.52,2.02-4.52,4.52c0,.92.28,2.35.75,3.77-1.21-.89-2.48-1.6-3.36-1.88-2.37-.77-4.92.53-5.7,2.9-.77,2.37.53,4.92,2.9,5.7.88.29,2.32.46,3.82.45-1.22.88-2.28,1.86-2.83,2.61-1.47,2.02-1.02,4.85,1,6.31,2.02,1.47,4.85,1.02,6.31-1,.54-.75,1.15-2.06,1.61-3.5.46,1.43,1.07,2.75,1.61,3.5,1.47,2.02,4.29,2.47,6.31,1s2.47-4.29,1-6.31c-.54-.75-1.6-1.73-2.83-2.61,1.5.01,2.94-.17,3.82-.45,2.37-.77,3.67-3.32,2.9-5.7ZM1037.02,165.75c.01.08.01.17.04.24s.07.15.11.22c-.07.04-.15.07-.22.11-.07.05-.12.12-.18.17-.06-.06-.11-.13-.18-.17-.07-.05-.15-.08-.22-.11.04-.07.09-.14.11-.22.03-.08.03-.16.04-.24.08.01.16.04.24.04s.16-.02.25-.04Z"/>
          <circle class="cls-4" cx="1036.77" cy="166.08" r="3"/>
        </g>
        <g>
          <path class="cls-6" d="M759.75,630.29c-.77-2.37-3.32-3.67-5.7-2.9-.88.29-2.15.99-3.36,1.88.47-1.43.75-2.85.75-3.77,0-2.5-2.02-4.52-4.52-4.52s-4.52,2.02-4.52,4.52c0,.92.28,2.35.75,3.77-1.21-.89-2.48-1.6-3.36-1.88-2.37-.77-4.92.53-5.7,2.9-.77,2.37.53,4.92,2.9,5.7.88.29,2.32.46,3.82.45-1.22.88-2.28,1.86-2.83,2.61-1.47,2.02-1.02,4.85,1,6.31,2.02,1.47,4.85,1.02,6.31-1,.54-.75,1.15-2.06,1.61-3.5.46,1.43,1.07,2.75,1.61,3.5,1.47,2.02,4.29,2.47,6.31,1s2.47-4.29,1-6.31c-.54-.75-1.6-1.73-2.83-2.61,1.5.01,2.94-.17,3.82-.45,2.37-.77,3.67-3.32,2.9-5.7ZM747.18,634.12c.01.08.01.17.04.24s.07.15.11.22c-.07.04-.15.07-.22.11-.07.05-.12.12-.18.17-.06-.06-.11-.13-.18-.17-.07-.05-.15-.08-.22-.11.04-.07.09-.14.11-.22.03-.08.03-.16.04-.24.08.01.16.04.24.04s.16-.02.25-.04Z"/>
          <circle class="cls-4" cx="746.93" cy="634.46" r="3"/>
        </g>
        <g>
          <path class="cls-6" d="M273.56,1046.53c-1.16-3.58-5-5.53-8.58-4.37-1.32.43-3.23,1.49-5.06,2.83.71-2.15,1.13-4.29,1.13-5.68,0-3.76-3.05-6.81-6.81-6.81s-6.81,3.05-6.81,6.81c0,1.39.42,3.53,1.13,5.68-1.83-1.34-3.73-2.4-5.06-2.83-3.58-1.16-7.42.8-8.58,4.37-1.16,3.58.79,7.42,4.37,8.58,1.32.43,3.49.69,5.75.68-1.84,1.32-3.44,2.81-4.26,3.93-2.21,3.04-1.54,7.3,1.51,9.51,3.04,2.21,7.3,1.54,9.51-1.51.82-1.12,1.74-3.1,2.42-5.26.69,2.16,1.61,4.14,2.42,5.26,2.21,3.04,6.47,3.72,9.51,1.51s3.72-6.47,1.51-9.51c-.82-1.12-2.42-2.61-4.26-3.93,2.27.02,4.43-.25,5.75-.68,3.58-1.16,5.53-5,4.37-8.58ZM254.62,1052.29c.02.12.02.25.06.37s.11.22.17.33c-.11.06-.23.1-.33.17-.1.07-.18.17-.27.26-.09-.09-.16-.19-.27-.26-.1-.07-.22-.12-.33-.17.06-.11.13-.21.17-.33.04-.12.04-.25.06-.37.12.02.24.06.37.06s.25-.04.37-.06Z"/>
          <circle class="cls-4" cx="254.26" cy="1052.8" r="4.52"/>
        </g>
        <g>
          <path class="cls-6" d="M979.27,1019.7c-.77-2.37-3.32-3.67-5.7-2.9-.88.29-2.15.99-3.36,1.88.47-1.43.75-2.85.75-3.77,0-2.5-2.02-4.52-4.52-4.52s-4.52,2.02-4.52,4.52c0,.92.28,2.35.75,3.77-1.21-.89-2.48-1.6-3.36-1.88-2.37-.77-4.92.53-5.7,2.9-.77,2.37.53,4.92,2.9,5.7.88.29,2.32.46,3.82.45-1.22.88-2.28,1.86-2.83,2.61-1.47,2.02-1.02,4.85,1,6.31,2.02,1.47,4.85,1.02,6.31-1,.54-.75,1.15-2.06,1.61-3.5.46,1.43,1.07,2.75,1.61,3.5,1.47,2.02,4.29,2.47,6.31,1s2.47-4.29,1-6.31c-.54-.75-1.6-1.73-2.83-2.61,1.5.01,2.94-.17,3.82-.45,2.37-.77,3.67-3.32,2.9-5.7ZM966.7,1023.52c.01.08.01.17.04.24s.07.15.11.22c-.07.04-.15.07-.22.11-.07.05-.12.12-.18.17-.06-.06-.11-.13-.18-.17-.07-.05-.15-.08-.22-.11.04-.07.09-.14.11-.22.03-.08.03-.16.04-.24.08.01.16.04.24.04s.16-.02.25-.04Z"/>
          <circle class="cls-4" cx="966.45" cy="1023.86" r="3"/>
        </g>
        <g>
          <path class="cls-7" d="M554.03,741.5c-.8-2.46-3.44-3.8-5.9-3-.91.3-2.22,1.02-3.48,1.95.49-1.48.78-2.95.78-3.91,0-2.58-2.1-4.68-4.68-4.68s-4.68,2.1-4.68,4.68c0,.96.29,2.43.78,3.91-1.25-.92-2.57-1.65-3.48-1.95-2.46-.8-5.1.55-5.9,3-.8,2.46.55,5.1,3,5.9.91.3,2.4.48,3.96.47-1.27.91-2.37,1.93-2.93,2.7-1.52,2.09-1.06,5.02,1.04,6.54,2.09,1.52,5.02,1.06,6.54-1.04.56-.77,1.2-2.13,1.67-3.62.47,1.48,1.11,2.85,1.67,3.62,1.52,2.09,4.45,2.55,6.54,1.04,2.09-1.52,2.55-4.45,1.04-6.54-.56-.77-1.66-1.8-2.93-2.7,1.56.01,3.05-.17,3.96-.47,2.46-.8,3.8-3.44,3-5.9ZM541.01,745.47c.01.08.02.17.04.25s.08.15.11.23c-.08.04-.16.07-.23.12s-.12.12-.18.18c-.06-.06-.11-.13-.18-.18-.07-.05-.15-.08-.23-.12.04-.08.09-.15.11-.23s.03-.17.04-.25c.08.01.17.04.25.04s.17-.02.25-.04Z"/>
          <circle class="cls-4" cx="540.76" cy="745.82" r="3.11"/>
        </g>
        <g>
          <path class="cls-7" d="M1043.06,791.63c-.8-2.46-3.44-3.8-5.9-3-.91.3-2.22,1.02-3.48,1.95.49-1.48.78-2.95.78-3.91,0-2.58-2.1-4.68-4.68-4.68s-4.68,2.1-4.68,4.68c0,.96.29,2.43.78,3.91-1.25-.92-2.57-1.65-3.48-1.95-2.46-.8-5.1.55-5.9,3-.8,2.46.55,5.1,3,5.9.91.3,2.4.48,3.96.47-1.27.91-2.37,1.93-2.93,2.7-1.52,2.09-1.06,5.02,1.04,6.54,2.09,1.52,5.02,1.06,6.54-1.04.56-.77,1.2-2.13,1.67-3.62.47,1.48,1.11,2.85,1.67,3.62,1.52,2.09,4.45,2.55,6.54,1.04,2.09-1.52,2.55-4.45,1.04-6.54-.56-.77-1.66-1.8-2.93-2.7,1.56.01,3.05-.17,3.96-.47,2.46-.8,3.8-3.44,3-5.9ZM1030.04,795.59c.01.08.02.17.04.25s.08.15.11.23c-.08.04-.16.07-.23.12s-.12.12-.18.18c-.06-.06-.11-.13-.18-.18-.07-.05-.15-.08-.23-.12.04-.08.09-.15.11-.23s.03-.17.04-.25c.08.01.17.04.25.04s.17-.02.25-.04Z"/>
          <circle class="cls-4" cx="1029.78" cy="795.94" r="3.11"/>
        </g>
        <g>
          <path class="cls-7" d="M1059.63,537.3c-.8-2.46-3.44-3.8-5.9-3-.91.3-2.22,1.02-3.48,1.95.49-1.48.78-2.95.78-3.91,0-2.58-2.1-4.68-4.68-4.68s-4.68,2.1-4.68,4.68c0,.96.29,2.43.78,3.91-1.25-.92-2.57-1.65-3.48-1.95-2.46-.8-5.1.55-5.9,3-.8,2.46.55,5.1,3,5.9.91.3,2.4.48,3.96.47-1.27.91-2.37,1.93-2.93,2.7-1.52,2.09-1.06,5.02,1.04,6.54,2.09,1.52,5.02,1.06,6.54-1.04.56-.77,1.2-2.13,1.67-3.62.47,1.48,1.11,2.85,1.67,3.62,1.52,2.09,4.45,2.55,6.54,1.04,2.09-1.52,2.55-4.45,1.04-6.54-.56-.77-1.66-1.8-2.93-2.7,1.56.01,3.05-.17,3.96-.47,2.46-.8,3.8-3.44,3-5.9ZM1046.61,541.27c.01.08.02.17.04.25s.08.15.11.23c-.08.04-.16.07-.23.12s-.12.12-.18.18c-.06-.06-.11-.13-.18-.18-.07-.05-.15-.08-.23-.12.04-.08.09-.15.11-.23s.03-.17.04-.25c.08.01.17.04.25.04s.17-.02.25-.04Z"/>
          <circle class="cls-4" cx="1046.35" cy="541.62" r="3.11"/>
        </g>
        <g>
          <path class="cls-7" d="M757.2,520.85c-.8-2.46-3.44-3.8-5.9-3-.91.3-2.22,1.02-3.48,1.95.49-1.48.78-2.95.78-3.91,0-2.58-2.1-4.68-4.68-4.68s-4.68,2.1-4.68,4.68c0,.96.29,2.43.78,3.91-1.25-.92-2.57-1.65-3.48-1.95-2.46-.8-5.1.55-5.9,3-.8,2.46.55,5.1,3,5.9.91.3,2.4.48,3.96.47-1.27.91-2.37,1.93-2.93,2.7-1.52,2.09-1.06,5.02,1.04,6.54,2.09,1.52,5.02,1.06,6.54-1.04.56-.77,1.2-2.13,1.67-3.62.47,1.48,1.11,2.85,1.67,3.62,1.52,2.09,4.45,2.55,6.54,1.04,2.09-1.52,2.55-4.45,1.04-6.54-.56-.77-1.66-1.8-2.93-2.7,1.56.01,3.05-.17,3.96-.47,2.46-.8,3.8-3.44,3-5.9ZM744.18,524.81c.01.08.02.17.04.25s.08.15.11.23c-.08.04-.16.07-.23.12s-.12.12-.18.18c-.06-.06-.11-.13-.18-.18-.07-.05-.15-.08-.23-.12.04-.08.09-.15.11-.23s.03-.17.04-.25c.08.01.17.04.25.04s.17-.02.25-.04Z"/>
          <circle class="cls-4" cx="743.93" cy="525.16" r="3.11"/>
        </g>
        <g>
          <path class="cls-7" d="M1034.81,111.1c-.8-2.46-3.44-3.8-5.9-3-.91.3-2.22,1.02-3.48,1.95.49-1.48.78-2.95.78-3.91,0-2.58-2.1-4.68-4.68-4.68s-4.68,2.1-4.68,4.68c0,.96.29,2.43.78,3.91-1.25-.92-2.57-1.65-3.48-1.95-2.46-.8-5.1.55-5.9,3-.8,2.46.55,5.1,3,5.9.91.3,2.4.48,3.96.47-1.27.91-2.37,1.93-2.93,2.7-1.52,2.09-1.06,5.02,1.04,6.54,2.09,1.52,5.02,1.06,6.54-1.04.56-.77,1.2-2.13,1.67-3.62.47,1.48,1.11,2.85,1.67,3.62,1.52,2.09,4.45,2.55,6.54,1.04,2.09-1.52,2.55-4.45,1.04-6.54-.56-.77-1.66-1.8-2.93-2.7,1.56.01,3.05-.17,3.96-.47,2.46-.8,3.8-3.44,3-5.9ZM1021.79,115.06c.01.08.02.17.04.25s.08.15.11.23c-.08.04-.16.07-.23.12s-.12.12-.18.18c-.06-.06-.11-.13-.18-.18-.07-.05-.15-.08-.23-.12.04-.08.09-.15.11-.23s.03-.17.04-.25c.08.01.17.04.25.04s.17-.02.25-.04Z"/>
          <circle class="cls-4" cx="1021.54" cy="115.41" r="3.11"/>
        </g>
        <g>
          <path class="cls-7" d="M777.15,167.11c-.8-2.46-3.44-3.8-5.9-3-.91.3-2.22,1.02-3.48,1.95.49-1.48.78-2.95.78-3.91,0-2.58-2.1-4.68-4.68-4.68s-4.68,2.1-4.68,4.68c0,.96.29,2.43.78,3.91-1.25-.92-2.57-1.65-3.48-1.95-2.46-.8-5.1.55-5.9,3-.8,2.46.55,5.1,3,5.9.91.3,2.4.48,3.96.47-1.27.91-2.37,1.93-2.93,2.7-1.52,2.09-1.06,5.02,1.04,6.54,2.09,1.52,5.02,1.06,6.54-1.04.56-.77,1.2-2.13,1.67-3.62.47,1.48,1.11,2.85,1.67,3.62,1.52,2.09,4.45,2.55,6.54,1.04,2.09-1.52,2.55-4.45,1.04-6.54-.56-.77-1.66-1.8-2.93-2.7,1.56.01,3.05-.17,3.96-.47,2.46-.8,3.8-3.44,3-5.9ZM764.12,171.07c.01.08.02.17.04.25s.08.15.11.23c-.08.04-.16.07-.23.12s-.12.12-.18.18c-.06-.06-.11-.13-.18-.18-.07-.05-.15-.08-.23-.12.04-.08.09-.15.11-.23s.03-.17.04-.25c.08.01.17.04.25.04s.17-.02.25-.04Z"/>
          <circle class="cls-4" cx="763.87" cy="171.42" r="3.11"/>
        </g>
        <g>
          <path class="cls-7" d="M413.67,168.98c-.8-2.46-3.44-3.8-5.9-3-.91.3-2.22,1.02-3.48,1.95.49-1.48.78-2.95.78-3.91,0-2.58-2.1-4.68-4.68-4.68s-4.68,2.1-4.68,4.68c0,.96.29,2.43.78,3.91-1.25-.92-2.57-1.65-3.48-1.95-2.46-.8-5.1.55-5.9,3-.8,2.46.55,5.1,3,5.9.91.3,2.4.48,3.96.47-1.27.91-2.37,1.93-2.93,2.7-1.52,2.09-1.06,5.02,1.04,6.54,2.09,1.52,5.02,1.06,6.54-1.04.56-.77,1.2-2.13,1.67-3.62.47,1.48,1.11,2.85,1.67,3.62,1.52,2.09,4.45,2.55,6.54,1.04,2.09-1.52,2.55-4.45,1.04-6.54-.56-.77-1.66-1.8-2.93-2.7,1.56.01,3.05-.17,3.96-.47,2.46-.8,3.8-3.44,3-5.9ZM400.65,172.94c.01.08.02.17.04.25s.08.15.11.23c-.08.04-.16.07-.23.12s-.12.12-.18.18c-.06-.06-.11-.13-.18-.18-.07-.05-.15-.08-.23-.12.04-.08.09-.15.11-.23s.03-.17.04-.25c.08.01.17.04.25.04s.17-.02.25-.04Z"/>
          <circle class="cls-4" cx="400.4" cy="173.29" r="3.11"/>
        </g>
        <g>
          <path class="cls-7" d="M727.77,932.3c-.8-2.46-3.44-3.8-5.9-3-.91.3-2.22,1.02-3.48,1.95.49-1.48.78-2.95.78-3.91,0-2.58-2.1-4.68-4.68-4.68s-4.68,2.1-4.68,4.68c0,.96.29,2.43.78,3.91-1.25-.92-2.57-1.65-3.48-1.95-2.46-.8-5.1.55-5.9,3-.8,2.46.55,5.1,3,5.9.91.3,2.4.48,3.96.47-1.27.91-2.37,1.93-2.93,2.7-1.52,2.09-1.06,5.02,1.04,6.54,2.09,1.52,5.02,1.06,6.54-1.04.56-.77,1.2-2.13,1.67-3.62.47,1.48,1.11,2.85,1.67,3.62,1.52,2.09,4.45,2.55,6.54,1.04,2.09-1.52,2.55-4.45,1.04-6.54-.56-.77-1.66-1.8-2.93-2.7,1.56.01,3.05-.17,3.96-.47,2.46-.8,3.8-3.44,3-5.9ZM714.75,936.26c.01.08.02.17.04.25s.08.15.11.23c-.08.04-.16.07-.23.12s-.12.12-.18.18c-.06-.06-.11-.13-.18-.18-.07-.05-.15-.08-.23-.12.04-.08.09-.15.11-.23s.03-.17.04-.25c.08.01.17.04.25.04s.17-.02.25-.04Z"/>
          <circle class="cls-4" cx="714.5" cy="936.61" r="3.11"/>
        </g>
        <g>
          <path class="cls-7" d="M813.53,1054.4c-.8-2.46-3.44-3.8-5.9-3-.91.3-2.22,1.02-3.48,1.95.49-1.48.78-2.95.78-3.91,0-2.58-2.1-4.68-4.68-4.68s-4.68,2.1-4.68,4.68c0,.96.29,2.43.78,3.91-1.25-.92-2.57-1.65-3.48-1.95-2.46-.8-5.1.55-5.9,3-.8,2.46.55,5.1,3,5.9.91.3,2.4.48,3.96.47-1.27.91-2.37,1.93-2.93,2.7-1.52,2.09-1.06,5.02,1.04,6.54,2.09,1.52,5.02,1.06,6.54-1.04.56-.77,1.2-2.13,1.67-3.62.47,1.48,1.11,2.85,1.67,3.62,1.52,2.09,4.45,2.55,6.54,1.04,2.09-1.52,2.55-4.45,1.04-6.54-.56-.77-1.66-1.8-2.93-2.7,1.56.01,3.05-.17,3.96-.47,2.46-.8,3.8-3.44,3-5.9ZM800.51,1058.37c.01.08.02.17.04.25s.08.15.11.23c-.08.04-.16.07-.23.12s-.12.12-.18.18c-.06-.06-.11-.13-.18-.18-.07-.05-.15-.08-.23-.12.04-.08.09-.15.11-.23s.03-.17.04-.25c.08.01.17.04.25.04s.17-.02.25-.04Z"/>
          <circle class="cls-4" cx="800.26" cy="1058.72" r="3.11"/>
        </g>
        <g>
          <path class="cls-7" d="M373.95,1054.81c-.8-2.46-3.44-3.8-5.9-3-.91.3-2.22,1.02-3.48,1.95.49-1.48.78-2.95.78-3.91,0-2.58-2.1-4.68-4.68-4.68s-4.68,2.1-4.68,4.68c0,.96.29,2.43.78,3.91-1.25-.92-2.57-1.65-3.48-1.95-2.46-.8-5.1.55-5.9,3-.8,2.46.55,5.1,3,5.9.91.3,2.4.48,3.96.47-1.27.91-2.37,1.93-2.93,2.7-1.52,2.09-1.06,5.02,1.04,6.54,2.09,1.52,5.02,1.06,6.54-1.04.56-.77,1.2-2.13,1.67-3.62.47,1.48,1.11,2.85,1.67,3.62,1.52,2.09,4.45,2.55,6.54,1.04,2.09-1.52,2.55-4.45,1.04-6.54-.56-.77-1.66-1.8-2.93-2.7,1.56.01,3.05-.17,3.96-.47,2.46-.8,3.8-3.44,3-5.9ZM360.93,1058.77c.01.08.02.17.04.25s.08.15.11.23c-.08.04-.16.07-.23.12s-.12.12-.18.18c-.06-.06-.11-.13-.18-.18-.07-.05-.15-.08-.23-.12.04-.08.09-.15.11-.23s.03-.17.04-.25c.08.01.17.04.25.04s.17-.02.25-.04Z"/>
          <circle class="cls-4" cx="360.68" cy="1059.12" r="3.11"/>
        </g>
        <g>
          <path class="cls-7" d="M117.8,1052.67c-.8-2.46-3.44-3.8-5.9-3-.91.3-2.22,1.02-3.48,1.95.49-1.48.78-2.95.78-3.91,0-2.58-2.1-4.68-4.68-4.68s-4.68,2.1-4.68,4.68c0,.96.29,2.43.78,3.91-1.25-.92-2.57-1.65-3.48-1.95-2.46-.8-5.1.55-5.9,3-.8,2.46.55,5.1,3,5.9.91.3,2.4.48,3.96.47-1.27.91-2.37,1.93-2.93,2.7-1.52,2.09-1.06,5.02,1.04,6.54,2.09,1.52,5.02,1.06,6.54-1.04.56-.77,1.2-2.13,1.67-3.62.47,1.48,1.11,2.85,1.67,3.62,1.52,2.09,4.45,2.55,6.54,1.04,2.09-1.52,2.55-4.45,1.04-6.54-.56-.77-1.66-1.8-2.93-2.7,1.56.01,3.05-.17,3.96-.47,2.46-.8,3.8-3.44,3-5.9ZM104.78,1056.63c.01.08.02.17.04.25s.08.15.11.23c-.08.04-.16.07-.23.12s-.12.12-.18.18c-.06-.06-.11-.13-.18-.18-.07-.05-.15-.08-.23-.12.04-.08.09-.15.11-.23s.03-.17.04-.25c.08.01.17.04.25.04s.17-.02.25-.04Z"/>
          <circle class="cls-4" cx="104.53" cy="1056.98" r="3.11"/>
        </g>
        <g>
          <path class="cls-7" d="M334.77,987.24c-1.09-3.35-4.68-5.18-8.03-4.09-1.24.4-3.03,1.39-4.73,2.65.67-2.01,1.06-4.02,1.06-5.32,0-3.52-2.85-6.37-6.37-6.37s-6.37,2.85-6.37,6.37c0,1.3.39,3.31,1.06,5.32-1.71-1.26-3.5-2.25-4.73-2.65-3.35-1.09-6.94.74-8.03,4.09-1.09,3.35.74,6.94,4.09,8.03,1.24.4,3.27.65,5.39.64-1.73,1.24-3.22,2.63-3.99,3.68-2.07,2.85-1.44,6.83,1.41,8.9,2.85,2.07,6.83,1.44,8.9-1.41.76-1.05,1.63-2.91,2.27-4.93.64,2.02,1.51,3.88,2.27,4.93,2.07,2.85,6.06,3.48,8.9,1.41,2.85-2.07,3.48-6.06,1.41-8.9-.76-1.05-2.26-2.45-3.99-3.68,2.12.01,4.15-.23,5.39-.64,3.35-1.09,5.18-4.68,4.09-8.03ZM317.04,992.64c.02.12.02.23.06.34s.1.21.16.31c-.1.05-.22.09-.31.16s-.17.16-.25.25c-.08-.08-.15-.18-.25-.25-.09-.07-.21-.11-.31-.16.05-.1.12-.2.16-.31s.04-.23.06-.34c.11.02.23.05.35.05s.23-.03.35-.05Z"/>
          <circle class="cls-4" cx="316.7" cy="993.12" r="4.23"/>
        </g>
        <g>
          <path class="cls-7" d="M168.3,793.57c2.14-4.21.47-9.36-3.74-11.51-1.56-.79-4.19-1.55-7.01-1.97,2.55-1.28,4.82-2.81,6.06-4.04,3.34-3.34,3.34-8.76,0-12.1s-8.76-3.34-12.1,0c-1.23,1.23-2.77,3.51-4.04,6.06-.43-2.82-1.18-5.45-1.97-7.01-2.15-4.21-7.3-5.88-11.51-3.74-4.21,2.15-5.88,7.3-3.74,11.51.79,1.56,2.48,3.72,4.51,5.72-2.81-.46-5.55-.56-7.28-.29-4.67.74-7.85,5.12-7.11,9.79.74,4.67,5.12,7.85,9.79,7.11,1.72-.27,4.3-1.21,6.83-2.52-1.31,2.53-2.25,5.11-2.52,6.83-.74,4.67,2.44,9.05,7.11,9.79,4.67.74,9.05-2.44,9.79-7.11.27-1.72.18-4.47-.29-7.28,2,2.03,4.16,3.72,5.72,4.51,4.21,2.15,9.36.47,11.51-3.74ZM146.35,781.87c-.09.13-.2.24-.27.38s-.1.3-.15.44c-.15-.05-.29-.12-.45-.14s-.31,0-.47,0c0-.16.02-.31,0-.47-.02-.16-.09-.3-.14-.45.15-.05.3-.08.44-.15s.25-.18.38-.27c.09.13.17.27.28.38s.25.19.38.28Z"/>
          <circle class="cls-4" cx="145.57" cy="781.99" r="5.68"/>
        </g>
        <g>
          <path class="cls-1" d="M936.95,638.7c-.81-2.49-3.48-3.85-5.96-3.04-.92.3-2.25,1.04-3.51,1.97.5-1.49.79-2.98.79-3.95,0-2.61-2.12-4.73-4.73-4.73s-4.73,2.12-4.73,4.73c0,.97.29,2.46.79,3.95-1.27-.93-2.6-1.67-3.51-1.97-2.48-.81-5.15.55-5.96,3.04-.81,2.49.55,5.15,3.04,5.96.92.3,2.43.48,4,.47-1.28.92-2.39,1.95-2.96,2.73-1.54,2.11-1.07,5.07,1.05,6.61,2.11,1.54,5.07,1.07,6.61-1.05.57-.78,1.21-2.16,1.69-3.66.48,1.5,1.12,2.88,1.69,3.66,1.54,2.11,4.5,2.58,6.61,1.05,2.11-1.54,2.58-4.49,1.05-6.61-.57-.78-1.68-1.82-2.96-2.73,1.57.01,3.08-.17,4-.47,2.48-.81,3.84-3.48,3.04-5.96ZM923.79,642.7c.01.09.02.17.04.26s.08.15.12.23c-.08.04-.16.07-.23.12-.07.05-.12.12-.18.18-.06-.06-.11-.13-.18-.18-.07-.05-.15-.08-.23-.12.04-.08.09-.15.12-.23s.03-.17.04-.26c.09.01.17.04.26.04s.17-.02.26-.04Z"/>
          <circle class="cls-4" cx="923.53" cy="643.06" r="3.14"/>
        </g>
        <g>
          <path class="cls-1" d="M1076.35,1001.24c-.81-2.49-3.48-3.85-5.96-3.04-.92.3-2.25,1.04-3.51,1.97.5-1.49.79-2.98.79-3.95,0-2.61-2.12-4.73-4.73-4.73s-4.73,2.12-4.73,4.73c0,.97.29,2.46.79,3.95-1.27-.93-2.6-1.67-3.51-1.97-2.48-.81-5.15.55-5.96,3.04-.81,2.49.55,5.15,3.04,5.96.92.3,2.43.48,4,.47-1.28.92-2.39,1.95-2.96,2.73-1.54,2.11-1.07,5.07,1.05,6.61,2.11,1.54,5.07,1.07,6.61-1.05.57-.78,1.21-2.16,1.69-3.66.48,1.5,1.12,2.88,1.69,3.66,1.54,2.11,4.5,2.58,6.61,1.05,2.11-1.54,2.58-4.49,1.05-6.61-.57-.78-1.68-1.82-2.96-2.73,1.57.01,3.08-.17,4-.47,2.48-.81,3.84-3.48,3.04-5.96ZM1063.19,1005.25c.01.09.02.17.04.26s.08.15.12.23c-.08.04-.16.07-.23.12-.07.05-.12.12-.18.18-.06-.06-.11-.13-.18-.18-.07-.05-.15-.08-.23-.12.04-.08.09-.15.12-.23s.03-.17.04-.26c.09.01.17.04.26.04s.17-.02.26-.04Z"/>
          <circle class="cls-4" cx="1062.93" cy="1005.6" r="3.14"/>
        </g>
        <g>
          <path class="cls-1" d="M1040.61,1063.12c-.81-2.49-3.48-3.85-5.96-3.04-.92.3-2.25,1.04-3.51,1.97.5-1.49.79-2.98.79-3.95,0-2.61-2.12-4.73-4.73-4.73s-4.73,2.12-4.73,4.73c0,.97.29,2.46.79,3.95-1.27-.93-2.6-1.67-3.51-1.97-2.48-.81-5.15.55-5.96,3.04-.81,2.49.55,5.15,3.04,5.96.92.3,2.43.48,4,.47-1.28.92-2.39,1.95-2.96,2.73-1.54,2.11-1.07,5.07,1.05,6.61,2.11,1.54,5.07,1.07,6.61-1.05.57-.78,1.21-2.16,1.69-3.66.48,1.5,1.12,2.88,1.69,3.66,1.54,2.11,4.5,2.58,6.61,1.05,2.11-1.54,2.58-4.49,1.05-6.61-.57-.78-1.68-1.82-2.96-2.73,1.57.01,3.08-.17,4-.47,2.48-.81,3.84-3.48,3.04-5.96ZM1027.44,1067.13c.01.09.02.17.04.26s.08.15.12.23c-.08.04-.16.07-.23.12-.07.05-.12.12-.18.18-.06-.06-.11-.13-.18-.18-.07-.05-.15-.08-.23-.12.04-.08.09-.15.12-.23s.03-.17.04-.26c.09.01.17.04.26.04s.17-.02.26-.04Z"/>
          <circle class="cls-4" cx="1027.19" cy="1067.48" r="3.14"/>
        </g>
        <g>
          <path class="cls-1" d="M662.55,1050.38c-.81-2.49-3.48-3.85-5.96-3.04-.92.3-2.25,1.04-3.51,1.97.5-1.49.79-2.98.79-3.95,0-2.61-2.12-4.73-4.73-4.73s-4.73,2.12-4.73,4.73c0,.97.29,2.46.79,3.95-1.27-.93-2.6-1.67-3.51-1.97-2.48-.81-5.15.55-5.96,3.04-.81,2.49.55,5.15,3.04,5.96.92.3,2.43.48,4,.47-1.28.92-2.39,1.95-2.96,2.73-1.54,2.11-1.07,5.07,1.05,6.61,2.11,1.54,5.07,1.07,6.61-1.05.57-.78,1.21-2.16,1.69-3.66.48,1.5,1.12,2.88,1.69,3.66,1.54,2.11,4.5,2.58,6.61,1.05,2.11-1.54,2.58-4.49,1.05-6.61-.57-.78-1.68-1.82-2.96-2.73,1.57.01,3.08-.17,4-.47,2.48-.81,3.84-3.48,3.04-5.96ZM649.39,1054.39c.01.09.02.17.04.26s.08.15.12.23c-.08.04-.16.07-.23.12-.07.05-.12.12-.18.18-.06-.06-.11-.13-.18-.18-.07-.05-.15-.08-.23-.12.04-.08.09-.15.12-.23s.03-.17.04-.26c.09.01.17.04.26.04s.17-.02.26-.04Z"/>
          <circle class="cls-4" cx="649.13" cy="1054.74" r="3.14"/>
        </g>
        <g>
          <path class="cls-1" d="M193.38,1015.42c-1.29-3.96-5.55-6.13-9.51-4.85-1.46.48-3.58,1.65-5.6,3.14.79-2.38,1.26-4.76,1.26-6.3,0-4.17-3.38-7.55-7.55-7.55s-7.55,3.38-7.55,7.55c0,1.54.46,3.92,1.26,6.3-2.02-1.49-4.14-2.67-5.61-3.14-3.96-1.29-8.22.88-9.51,4.85-1.29,3.96.88,8.22,4.85,9.51,1.46.48,3.87.77,6.38.75-2.04,1.46-3.81,3.11-4.72,4.36-2.45,3.37-1.7,8.09,1.67,10.54,3.37,2.45,8.09,1.7,10.54-1.67.91-1.25,1.93-3.44,2.69-5.84.76,2.39,1.78,4.59,2.69,5.84,2.45,3.37,7.17,4.12,10.54,1.67,3.37-2.45,4.12-7.17,1.67-10.54-.91-1.25-2.68-2.9-4.72-4.36,2.51.02,4.92-.28,6.38-.75,3.96-1.29,6.13-5.55,4.85-9.51ZM172.39,1021.82c.02.14.03.28.07.41s.12.25.18.37c-.12.06-.26.11-.37.19-.11.08-.2.19-.29.29-.1-.1-.18-.21-.29-.29-.11-.08-.24-.13-.37-.19.06-.12.14-.24.18-.37s.05-.27.07-.41c.14.02.27.06.41.06s.27-.04.41-.06Z"/>
          <circle class="cls-4" cx="171.98" cy="1022.38" r="5.01"/>
        </g>
        <g>
          <path class="cls-1" d="M619.63,725.11c-.81-2.49-3.48-3.85-5.96-3.04-.92.3-2.25,1.04-3.51,1.97.5-1.49.79-2.98.79-3.95,0-2.61-2.12-4.73-4.73-4.73s-4.73,2.12-4.73,4.73c0,.97.29,2.46.79,3.95-1.27-.93-2.6-1.67-3.51-1.97-2.48-.81-5.15.55-5.96,3.04-.81,2.49.55,5.15,3.04,5.96.92.3,2.43.48,4,.47-1.28.92-2.39,1.95-2.96,2.73-1.54,2.11-1.07,5.07,1.05,6.61,2.11,1.54,5.07,1.07,6.61-1.05.57-.78,1.21-2.16,1.69-3.66.48,1.5,1.12,2.88,1.69,3.66,1.54,2.11,4.5,2.58,6.61,1.05,2.11-1.54,2.58-4.49,1.05-6.61-.57-.78-1.68-1.82-2.96-2.73,1.57.01,3.08-.17,4-.47,2.48-.81,3.84-3.48,3.04-5.96ZM606.47,729.12c.01.09.02.17.04.26s.08.15.12.23c-.08.04-.16.07-.23.12-.07.05-.12.12-.18.18-.06-.06-.11-.13-.18-.18-.07-.05-.15-.08-.23-.12.04-.08.09-.15.12-.23s.03-.17.04-.26c.09.01.17.04.26.04s.17-.02.26-.04Z"/>
          <circle class="cls-4" cx="606.21" cy="729.47" r="3.14"/>
        </g>
        <g>
          <path class="cls-1" d="M463.56,539.75c-.81-2.49-3.48-3.85-5.96-3.04-.92.3-2.25,1.04-3.51,1.97.5-1.49.79-2.98.79-3.95,0-2.61-2.12-4.73-4.73-4.73s-4.73,2.12-4.73,4.73c0,.97.29,2.46.79,3.95-1.27-.93-2.6-1.67-3.51-1.97-2.48-.81-5.15.55-5.96,3.04-.81,2.49.55,5.15,3.04,5.96.92.3,2.43.48,4,.47-1.28.92-2.39,1.95-2.96,2.73-1.54,2.11-1.07,5.07,1.05,6.61,2.11,1.54,5.07,1.07,6.61-1.05.57-.78,1.21-2.16,1.69-3.66.48,1.5,1.12,2.88,1.69,3.66,1.54,2.11,4.5,2.58,6.61,1.05,2.11-1.54,2.58-4.49,1.05-6.61-.57-.78-1.68-1.82-2.96-2.73,1.57.01,3.08-.17,4-.47,2.48-.81,3.84-3.48,3.04-5.96ZM450.39,543.75c.01.09.02.17.04.26s.08.15.12.23c-.08.04-.16.07-.23.12-.07.05-.12.12-.18.18-.06-.06-.11-.13-.18-.18-.07-.05-.15-.08-.23-.12.04-.08.09-.15.12-.23s.03-.17.04-.26c.09.01.17.04.26.04s.17-.02.26-.04Z"/>
          <circle class="cls-4" cx="450.14" cy="544.11" r="3.14"/>
        </g>
        <g>
          <path class="cls-1" d="M540.68,407.31c-.81-2.49-3.48-3.85-5.96-3.04-.92.3-2.25,1.04-3.51,1.97.5-1.49.79-2.98.79-3.95,0-2.61-2.12-4.73-4.73-4.73s-4.73,2.12-4.73,4.73c0,.97.29,2.46.79,3.95-1.27-.93-2.6-1.67-3.51-1.97-2.48-.81-5.15.55-5.96,3.04-.81,2.49.55,5.15,3.04,5.96.92.3,2.43.48,4,.47-1.28.92-2.39,1.95-2.96,2.73-1.54,2.11-1.07,5.07,1.05,6.61,2.11,1.54,5.07,1.07,6.61-1.05.57-.78,1.21-2.16,1.69-3.66.48,1.5,1.12,2.88,1.69,3.66,1.54,2.11,4.5,2.58,6.61,1.05,2.11-1.54,2.58-4.49,1.05-6.61-.57-.78-1.68-1.82-2.96-2.73,1.57.01,3.08-.17,4-.47,2.48-.81,3.84-3.48,3.04-5.96ZM527.52,411.32c.01.09.02.17.04.26s.08.15.12.23c-.08.04-.16.07-.23.12-.07.05-.12.12-.18.18-.06-.06-.11-.13-.18-.18-.07-.05-.15-.08-.23-.12.04-.08.09-.15.12-.23s.03-.17.04-.26c.09.01.17.04.26.04s.17-.02.26-.04Z"/>
          <circle class="cls-4" cx="527.26" cy="411.67" r="3.14"/>
        </g>
        <g>
          <path class="cls-1" d="M527.03,251.58c-.81-2.49-3.48-3.85-5.96-3.04-.92.3-2.25,1.04-3.51,1.97.5-1.49.79-2.98.79-3.95,0-2.61-2.12-4.73-4.73-4.73s-4.73,2.12-4.73,4.73c0,.97.29,2.46.79,3.95-1.27-.93-2.6-1.67-3.51-1.97-2.48-.81-5.15.55-5.96,3.04-.81,2.49.55,5.15,3.04,5.96.92.3,2.43.48,4,.47-1.28.92-2.39,1.95-2.96,2.73-1.54,2.11-1.07,5.07,1.05,6.61,2.11,1.54,5.07,1.07,6.61-1.05.57-.78,1.21-2.16,1.69-3.66.48,1.5,1.12,2.88,1.69,3.66,1.54,2.11,4.5,2.58,6.61,1.05,2.11-1.54,2.58-4.49,1.05-6.61-.57-.78-1.68-1.82-2.96-2.73,1.57.01,3.08-.17,4-.47,2.48-.81,3.84-3.48,3.04-5.96ZM513.86,255.58c.01.09.02.17.04.26s.08.15.12.23c-.08.04-.16.07-.23.12-.07.05-.12.12-.18.18-.06-.06-.11-.13-.18-.18-.07-.05-.15-.08-.23-.12.04-.08.09-.15.12-.23s.03-.17.04-.26c.09.01.17.04.26.04s.17-.02.26-.04Z"/>
          <circle class="cls-4" cx="513.61" cy="255.94" r="3.14"/>
        </g>
        <g>
          <path class="cls-1" d="M582.08,144.42c-.81-2.49-3.48-3.85-5.96-3.04-.92.3-2.25,1.04-3.51,1.97.5-1.49.79-2.98.79-3.95,0-2.61-2.12-4.73-4.73-4.73s-4.73,2.12-4.73,4.73c0,.97.29,2.46.79,3.95-1.27-.93-2.6-1.67-3.51-1.97-2.48-.81-5.15.55-5.96,3.04-.81,2.49.55,5.15,3.04,5.96.92.3,2.43.48,4,.47-1.28.92-2.39,1.95-2.96,2.73-1.54,2.11-1.07,5.07,1.05,6.61,2.11,1.54,5.07,1.07,6.61-1.05.57-.78,1.21-2.16,1.69-3.66.48,1.5,1.12,2.88,1.69,3.66,1.54,2.11,4.5,2.58,6.61,1.05,2.11-1.54,2.58-4.49,1.05-6.61-.57-.78-1.68-1.82-2.96-2.73,1.57.01,3.08-.17,4-.47,2.48-.81,3.84-3.48,3.04-5.96ZM568.92,148.43c.01.09.02.17.04.26s.08.15.12.23c-.08.04-.16.07-.23.12-.07.05-.12.12-.18.18-.06-.06-.11-.13-.18-.18-.07-.05-.15-.08-.23-.12.04-.08.09-.15.12-.23s.03-.17.04-.26c.09.01.17.04.26.04s.17-.02.26-.04Z"/>
          <circle class="cls-4" cx="568.66" cy="148.78" r="3.14"/>
        </g>
        <g>
          <path class="cls-1" d="M314.81,157.63c-.81-2.49-3.48-3.85-5.96-3.04-.92.3-2.25,1.04-3.51,1.97.5-1.49.79-2.98.79-3.95,0-2.61-2.12-4.73-4.73-4.73s-4.73,2.12-4.73,4.73c0,.97.29,2.46.79,3.95-1.27-.93-2.6-1.67-3.51-1.97-2.48-.81-5.15.55-5.96,3.04-.81,2.49.55,5.15,3.04,5.96.92.3,2.43.48,4,.47-1.28.92-2.39,1.95-2.96,2.73-1.54,2.11-1.07,5.07,1.05,6.61,2.11,1.54,5.07,1.07,6.61-1.05.57-.78,1.21-2.16,1.69-3.66.48,1.5,1.12,2.88,1.69,3.66,1.54,2.11,4.5,2.58,6.61,1.05,2.11-1.54,2.58-4.49,1.05-6.61-.57-.78-1.68-1.82-2.96-2.73,1.57.01,3.08-.17,4-.47,2.48-.81,3.84-3.48,3.04-5.96ZM301.64,161.64c.01.09.02.17.04.26s.08.15.12.23c-.08.04-.16.07-.23.12-.07.05-.12.12-.18.18-.06-.06-.11-.13-.18-.18-.07-.05-.15-.08-.23-.12.04-.08.09-.15.12-.23s.03-.17.04-.26c.09.01.17.04.26.04s.17-.02.26-.04Z"/>
          <circle class="cls-4" cx="301.39" cy="161.99" r="3.14"/>
        </g>
        <g>
          <path class="cls-1" d="M697.21,241.26c-.81-2.49-3.48-3.85-5.96-3.04-.92.3-2.25,1.04-3.51,1.97.5-1.49.79-2.98.79-3.95,0-2.61-2.12-4.73-4.73-4.73s-4.73,2.12-4.73,4.73c0,.97.29,2.46.79,3.95-1.27-.93-2.6-1.67-3.51-1.97-2.48-.81-5.15.55-5.96,3.04-.81,2.49.55,5.15,3.04,5.96.92.3,2.43.48,4,.47-1.28.92-2.39,1.95-2.96,2.73-1.54,2.11-1.07,5.07,1.05,6.61,2.11,1.54,5.07,1.07,6.61-1.05.57-.78,1.21-2.16,1.69-3.66.48,1.5,1.12,2.88,1.69,3.66,1.54,2.11,4.5,2.58,6.61,1.05,2.11-1.54,2.58-4.49,1.05-6.61-.57-.78-1.68-1.82-2.96-2.73,1.57.01,3.08-.17,4-.47,2.48-.81,3.84-3.48,3.04-5.96ZM684.05,245.26c.01.09.02.17.04.26s.08.15.12.23c-.08.04-.16.07-.23.12-.07.05-.12.12-.18.18-.06-.06-.11-.13-.18-.18-.07-.05-.15-.08-.23-.12.04-.08.09-.15.12-.23s.03-.17.04-.26c.09.01.17.04.26.04s.17-.02.26-.04Z"/>
          <circle class="cls-4" cx="683.79" cy="245.62" r="3.14"/>
        </g>
        <g>
          <path class="cls-1" d="M965.85,122.27c-.81-2.49-3.48-3.85-5.96-3.04-.92.3-2.25,1.04-3.51,1.97.5-1.49.79-2.98.79-3.95,0-2.61-2.12-4.73-4.73-4.73s-4.73,2.12-4.73,4.73c0,.97.29,2.46.79,3.95-1.27-.93-2.6-1.67-3.51-1.97-2.48-.81-5.15.55-5.96,3.04-.81,2.49.55,5.15,3.04,5.96.92.3,2.43.48,4,.47-1.28.92-2.39,1.95-2.96,2.73-1.54,2.11-1.07,5.07,1.05,6.61,2.11,1.54,5.07,1.07,6.61-1.05.57-.78,1.21-2.16,1.69-3.66.48,1.5,1.12,2.88,1.69,3.66,1.54,2.11,4.5,2.58,6.61,1.05,2.11-1.54,2.58-4.49,1.05-6.61-.57-.78-1.68-1.82-2.96-2.73,1.57.01,3.08-.17,4-.47,2.48-.81,3.84-3.48,3.04-5.96ZM952.68,126.27c.01.09.02.17.04.26s.08.15.12.23c-.08.04-.16.07-.23.12-.07.05-.12.12-.18.18-.06-.06-.11-.13-.18-.18-.07-.05-.15-.08-.23-.12.04-.08.09-.15.12-.23s.03-.17.04-.26c.09.01.17.04.26.04s.17-.02.26-.04Z"/>
          <circle class="cls-4" cx="952.43" cy="126.63" r="3.14"/>
        </g>
        <g>
          <g>
            <path class="cls-8" d="M1014.82,450.77c-.54,0-1.07-.02-1.6-.05-2.32-.08-5.59-.64-7.89-2.82-4.95-4.35-1.23-12.48.6-15.77,1.15-2.31,2.74-4.06,5.12-5.63,2.95-1.92,7.18-3.68,12.6-5.25-.17-.13-.33-.27-.49-.42-.73-.66-1.2-1.52-1.34-2.42-.02,0-.03-.02-.05-.03-.34-.04-.69-.08-1.04-.12-1.04-.12-2.11-.25-3.47-.3-.65-.04-1.36-.06-2.25-.06-.47,0-.94,0-1.41.01-.48,0-.95,0-1.42,0-.92,0-1.65-.02-2.3-.06-2.16-.13-2.61-1.04-2.69-1.57-.2-1.36,1.54-2,2.12-2.21.96-.31,1.93-.45,3.1-.45.23,0,.47,0,.71.02.91.05,2.27.2,3.75.46-1.17-1.28-2.2-2.56-2.81-3.47-.83-1.26-1.32-2.38-1.53-3.53-.14-.83-.17-1.94.4-2.62.28-.33.68-.52,1.11-.52.37,0,.74.13,1.12.39.88.68,1.47,1.65,2.04,2.6,0,0,.55.94.78,1.33.52.89,1.05,1.82,1.59,2.67,1.12,1.79,2.78,3.88,3.26,4.48,0,0,.01.02.02.03.4-.34.88-.59,1.45-.74.39-.08.74-.12,1.09-.12.85,0,1.63.2,2.38.48-1.94-3.47-3.26-6.52-3.94-9.09-.74-2.84-.68-5.17.2-8.03.46-1.8,3.13-11.04,9.79-11.04.11,0,.33,0,.33,0,3.14,0,5.9,1.76,7.66,3.23,5.46,4.41,9.06,10.64,9.76,16.82.33-.02.67-.03.99-.03,1.61,0,3.12.23,4.5.69,3.81,1.26,6.05,4.71,5.45,8.4-.62,4.1-4.04,7.01-7.04,8.36-2.07,1-4.11,1.39-6.09,1.71.05.06.11.13.16.2.83,1.1,1.06,2.44.62,3.52-.38.91-1.12,1.55-2.1,1.86.51.78,1.03,1.69,1.48,2.74,1.08,2.42,1.46,5.03,1.05,7.32-.58,3.81-3.65,6.6-7.29,6.6-.27,0-.55-.02-.83-.05-2.54-.2-4.75-1.6-6.15-2.74-.93-.75-1.66-1.44-2.29-2.18-.12-.15-.23-.28-.33-.42-4.23,4.8-11.45,7.83-18.88,7.83h0Z"/>
            <path class="cls-9" d="M1033.81,387.91c.09,0,.19,0,.28,0,.02,0,.04,0,.05,0,2.62,0,5.1,1.39,7.02,3,5.1,4.12,9.07,10.44,9.49,17.1,0,.01,0,.02,0,.03.63-.07,1.26-.11,1.9-.11,1.41,0,2.84.19,4.19.64,3.15,1.04,5.32,3.9,4.78,7.29-.52,3.45-3.38,6.22-6.46,7.61-2.31,1.12-4.56,1.44-6.87,1.79-.37.06-.74.12-1.11.18.63.39,1.21.84,1.66,1.45.56.75.83,1.72.5,2.53-.44,1.04-1.47,1.45-2.61,1.45-.04,0-.09,0-.14,0-.08,0-.16-.02-.24-.03.91,1.18,1.74,2.44,2.37,3.95.93,2.08,1.39,4.5.99,6.76-.5,3.24-3.05,5.78-6.31,5.78-.24,0-.48-.01-.72-.04-2.07-.16-4.06-1.24-5.64-2.52-.8-.65-1.51-1.3-2.16-2.06-.49-.59-.72-1.01-.91-1.59-4.05,5.53-11.8,8.64-19.06,8.64-.51,0-1.03-.02-1.54-.05-2.53-.09-5.34-.73-7.27-2.55-4.28-3.75-1.16-11.06.78-14.56,1.1-2.21,2.59-3.83,4.8-5.28,4.07-2.65,10.12-4.57,14.53-5.74-.85-.43-1.62-.89-2.28-1.5l-.02-.02c-.71-.64-1.07-1.5-1.04-2.3-.22-.1-.45-.22-.69-.36-1.44-.14-2.83-.36-4.78-.45-.74-.05-1.51-.06-2.29-.06-.94,0-1.9.02-2.84.02-.76,0-1.51-.01-2.23-.06-1.84-.11-2.7-.96-.29-1.84.86-.28,1.75-.39,2.75-.39.22,0,.44,0,.66.01,1.67.09,4.46.51,6.89,1.13-1.98-1.78-4.06-4.19-5.07-5.7-.71-1.07-1.17-2.07-1.37-3.15-.17-1.08-.02-1.96.53-1.96.15,0,.34.07.55.22.73.57,1.29,1.53,1.85,2.46.74,1.25,1.49,2.62,2.28,3.85,1,1.6,2.48,3.52,3.32,4.57.06.09.2.26.36.47.22.09.43.18.63.27.28-.5.77-.91,1.52-1.1.28-.06.56-.08.84-.08,1.51,0,2.88.8,4.29,1.43.17.08.36.17.53.25-2.14-3.5-4.43-7.79-5.42-11.55-.72-2.77-.6-4.91.19-7.49.89-3.52,3.64-10.34,8.83-10.34M1033.81,385.91h0c-5.72,0-9.3,6.08-10.76,11.8-.92,3.03-.98,5.51-.19,8.53.57,2.16,1.57,4.63,2.98,7.38-.15-.01-.3-.02-.45-.02-.42,0-.83.04-1.24.13h-.05s-.05.02-.05.02c-.35.09-.68.21-.98.37-.71-.91-1.83-2.39-2.65-3.69-.55-.85-1.08-1.77-1.59-2.66-.22-.39-.45-.77-.67-1.15l-.12-.19c-.59-.97-1.26-2.07-2.23-2.83l-.04-.03-.04-.03c-.55-.38-1.12-.57-1.69-.57-.72,0-1.4.32-1.88.87-.66.78-.87,1.92-.63,3.41.24,1.33.78,2.57,1.68,3.93.3.45.7.98,1.17,1.57-.45-.05-.85-.08-1.2-.1-.28-.01-.53-.02-.77-.02-1.27,0-2.34.15-3.37.49h-.04s-.04.03-.04.03c-2.54.93-2.91,2.31-2.76,3.29.1.67.65,2.25,3.62,2.43.66.04,1.41.07,2.35.07.47,0,.95,0,1.43-.01.47,0,.94-.01,1.4-.01.87,0,1.55.02,2.16.06,1.37.06,2.43.18,3.44.3.13.02.26.03.39.04.17.52.42,1.01.76,1.47-4.76,1.48-8.53,3.12-11.25,4.89-2.54,1.67-4.23,3.52-5.48,6.02-1.95,3.53-5.82,12.14-.36,16.97,2.52,2.36,6.01,2.97,8.52,3.07.54.03,1.09.05,1.63.05,7.26,0,14.34-2.81,18.83-7.32.59.64,1.24,1.24,2.03,1.88,1.5,1.22,3.89,2.73,6.7,2.96.3.03.61.05.91.05,4.14,0,7.62-3.14,8.29-7.47.44-2.45.04-5.26-1.14-7.88-.27-.63-.57-1.25-.94-1.88.7-.45,1.24-1.09,1.57-1.89.44-1.06.4-2.25-.08-3.37,1.59-.3,3.22-.73,4.91-1.54,3.23-1.47,6.92-4.63,7.59-9.12.67-4.16-1.84-8.07-6.12-9.48-1.49-.49-3.11-.74-4.82-.74-.04,0-.08,0-.12,0-.96-6.13-4.6-12.22-10.01-16.58-1.86-1.56-4.84-3.44-8.27-3.44h-.01c-.11,0-.22,0-.32,0h0Z"/>
          </g>
          <g>
            <path class="cls-15" d="M1034.98,423.69c-.63-.4-1.03-.78-1.46-1.36-2.34-3.37-7.17-10.65-8.72-16.59-.72-2.77-.6-4.91.19-7.49.91-3.58,3.73-10.58,9.11-10.33,2.64-.02,5.14,1.38,7.07,3,5.1,4.12,9.07,10.44,9.49,17.1.15,2.35-.24,4.24-.83,6.52-.87,3.56-3.39,10.11-7.15,11.26-2.52.67-5.49-.93-7.67-2.1h-.02Z"/>
            <path class="cls-11" d="M1043.01,425.63c1.75.26,3.46-.08,5.18-.36,2.31-.35,4.56-.67,6.87-1.79,3.09-1.39,5.94-4.16,6.46-7.61.55-3.38-1.62-6.24-4.78-7.29-2-.66-4.14-.76-6.18-.52-1.09.17-1.54.43-2.52,1.12-.85.62-1.62,1.24-2.45,1.96-2.78,2.44-5.69,5.45-7.78,8.43-.58.88-.84,1.67-.57,2.48.88,2.07,3.53,3.21,5.72,3.58h.03Z"/>
            <path class="cls-15" d="M1031.48,420.73c-.74-.13-1.3-.11-2,.03-4.05.94-12.62,3.15-17.88,6.57-2.2,1.45-3.7,3.07-4.8,5.28-1.94,3.5-5.06,10.81-.78,14.56,1.93,1.82,4.74,2.45,7.27,2.55,7.83.49,16.63-2.8,20.87-8.96.95-1.4,1.8-2.97,2.63-4.63,1.46-3.02,3.52-8.7,1.74-11.76-1.37-2.2-4.64-3.03-7.02-3.62h-.02Z"/>
            <path class="cls-11" d="M1040.97,425.04c1.5,1.02,2.58,2.44,3.69,3.83,1.49,1.81,2.96,3.55,3.96,5.92.93,2.08,1.39,4.5.99,6.76-.53,3.48-3.44,6.14-7.03,5.74-2.07-.16-4.06-1.24-5.64-2.52-.8-.65-1.51-1.3-2.16-2.06-.72-.87-.89-1.36-1.15-2.52-.78-3.67-1.03-7.61-.93-11.38.14-1.76-.09-4.36,1.48-5.17,2.1-.87,4.86.15,6.76,1.38l.03.02Z"/>
            <path class="cls-14" d="M1023.82,420.08c-1.53-1.38-1.48-3.82.73-4.39,1.85-.38,3.46.6,5.13,1.34,4.73,2.26,11.15,5.33,15.39,7.36,1.35.67,2.75,1.29,3.67,2.5.56.75.83,1.72.5,2.53-.45,1.08-1.55,1.48-2.75,1.44-2.35-.19-3.7-1.15-6.44-2.42-3.79-1.86-7.81-3.84-11.52-5.66-1.84-.95-3.43-1.54-4.68-2.69l-.02-.02Z"/>
            <path class="cls-14" d="M1023.01,417.88c-2.38-.89-6.54-5.46-8.13-7.81-.71-1.07-1.17-2.07-1.37-3.15-.22-1.37.09-2.43,1.08-1.74.73.57,1.29,1.53,1.85,2.46.74,1.25,1.49,2.62,2.28,3.85,1,1.6,2.48,3.52,3.32,4.57.22.32,1.55,1.87.97,1.82h0Z"/>
            <path class="cls-14" d="M1023.95,417.3c-2.06-1.44-8.07-2.51-10.88-2.66-1.29-.06-2.38.04-3.42.37-2.41.88-1.55,1.73.29,1.84,2.34.16,4.97-.05,7.36.11,2.58.11,4.17.46,6.21.56.2,0,.62,0,.44-.22h0Z"/>
          </g>
        </g>
        <g>
          <g>
            <path class="cls-8" d="M842.85,147.58c-4.77,0-8.16-5.72-9.4-8.19-1.08-1.92-1.54-3.88-1.5-6.32.06-2.92.82-6.63,2.25-11.05-.08.02-.16.04-.25.06-.31.07-.61.11-.91.11-.5,0-.99-.1-1.43-.29-.17.2-.34.4-.52.6-.58.67-1.17,1.35-1.86,2.27-.62.79-1.21,1.67-1.77,2.52-.58.87-1.18,1.77-1.82,2.58-.67.86-1.34,1.3-1.99,1.3-.41,0-.79-.18-1.04-.5-.39-.5-.44-1.22-.16-2.33.29-1,.76-1.88,1.53-2.92.43-.56,1.06-1.3,1.8-2.09-1.29.17-2.46.25-3.27.25-1.35-.02-2.38-.22-3.3-.63-1.2-.56-1.8-1.27-1.77-2.05.01-.29.14-1,1.12-1.38.51-.17,1.05-.24,1.72-.24.37,0,.74.02,1.12.04l1.29.09c.87.07,1.76.14,2.62.16.32.01.63.02.96.02,1.45,0,2.98-.1,3.57-.15-.02-.41.04-.84.2-1.27.38-.9.97-1.55,1.63-2.07-3.17-.31-5.81-.83-7.85-1.55-2.36-.85-3.98-2.01-5.58-4.01-1.08-1.22-6.46-7.75-2.88-12.49,1.48-2.21,4.07-3.32,5.98-3.86,2.24-.68,4.59-1.02,6.95-1.02,3.44,0,6.66.75,9.4,2.17.85-1.39,1.87-2.54,3.03-3.44,1.29-.98,2.83-1.52,4.34-1.52,1.63,0,3.12.6,4.31,1.73,2.61,2.42,3.02,6.25,2.53,9.02-.27,1.83-.92,3.39-1.61,4.86h.14c1.15,0,2.16.49,2.7,1.31.44.69.57,1.47.37,2.28.86.02,1.66.11,2.44.27,2.23.4,4.25,1.39,5.68,2.79,2.67,2.49,2.98,6.36.71,9-1.37,1.7-3.43,2.59-4.91,3.03-.97.29-1.81.47-2.64.56-.09,0-.18.02-.27.02,1.37,5.66-.31,12.67-4.39,17.92-1.17,1.59-3.15,3.64-5.81,4.22-.47.12-.98.19-1.49.19h0Z"/>
            <path class="cls-9" d="M845.08,91.38c1.29,0,2.57.46,3.62,1.45,2.16,2,2.73,5.31,2.23,8.12-.32,2.15-1.17,3.86-2.02,5.64-.13.29-.26.57-.4.86.57-.25,1.16-.44,1.8-.47.05,0,.09,0,.14,0,.74,0,1.48.28,1.86.86.54.83.29,1.79-.3,2.6-.04.05-.09.1-.13.15.38-.02.77-.03,1.15-.03.88,0,1.79.07,2.73.26,1.89.34,3.8,1.17,5.18,2.53,2.17,2.03,2.65,5.32.66,7.63-1.1,1.36-2.8,2.24-4.44,2.73-.83.25-1.63.44-2.46.53-.19.02-.37.03-.52.03-.37,0-.67-.05-1.01-.15,2.07,5.84.18,13.32-3.8,18.44-1.27,1.72-3.05,3.38-5.23,3.86-.43.11-.86.16-1.28.16-4.03,0-7.13-4.9-8.5-7.63-1.02-1.82-1.43-3.63-1.4-5.85.09-4.1,1.63-9.23,2.91-12.86-.71.38-1.39.7-2.13.88h-.02c-.22.06-.45.08-.66.08-.54,0-1.05-.16-1.44-.45-.17.11-.36.21-.58.31-.79.94-1.6,1.8-2.59,3.12-1.25,1.59-2.35,3.53-3.57,5.08-.44.57-.89.92-1.2.92-.35,0-.51-.47-.23-1.59.26-.89.71-1.69,1.37-2.56.86-1.12,2.47-2.87,4.06-4.27-2.16.53-4.79.83-6.33.83-.02,0-.03,0-.05,0-1.09-.02-2-.17-2.85-.54-1.06-.5-1.65-1.22-.7-1.58.41-.13.88-.17,1.37-.17.4,0,.82.03,1.23.05,1.22.08,2.53.21,3.77.24.32.01.65.02.99.02,1.38,0,2.87-.09,3.78-.16.09,0,.28-.01.5-.03.17-.11.33-.22.48-.31-.22-.43-.27-.97-.05-1.58.61-1.47,2.06-2.12,3.38-2.94.14-.08.29-.17.43-.25-3.46-.17-7.54-.62-10.63-1.72-2.27-.81-3.71-1.91-5.13-3.69-2.06-2.33-5.6-7.64-2.87-11.27,1.24-1.85,3.41-2.92,5.45-3.5,2.12-.64,4.4-.99,6.68-.99,3.42,0,6.85.78,9.75,2.51,0,0,.02.01.02.02.8-1.51,1.88-2.93,3.26-4,1.12-.85,2.43-1.32,3.73-1.32M845.08,89.38c-1.73,0-3.49.61-4.95,1.73-1.04.8-1.97,1.79-2.78,2.95-2.69-1.23-5.78-1.88-9.04-1.88-2.46,0-4.9.36-7.26,1.07-2.02.57-4.82,1.78-6.5,4.26-3.07,4.14-.49,9.79,2.96,13.71,1.69,2.1,3.48,3.39,5.99,4.28,1.68.6,3.72,1.06,6.11,1.38-.17.27-.33.55-.46.87l-.02.05-.02.05c-.08.22-.14.45-.19.67-.72.04-1.7.09-2.64.09-.31,0-.62,0-.91-.02-.85-.02-1.74-.09-2.6-.16-.38-.03-.75-.06-1.12-.08h-.19c-.39-.03-.79-.05-1.17-.05-.79,0-1.41.08-1.98.27l-.05.02-.05.02c-1.07.41-1.73,1.26-1.76,2.27-.03.7.24,2.01,2.33,2.99,1.09.48,2.24.71,3.67.73h.01s.06,0,.06,0c.26,0,.55,0,.88-.02-.07.09-.13.17-.19.25-.85,1.14-1.38,2.15-1.7,3.21v.04s-.02.04-.02.04c-.23.89-.44,2.2.34,3.19.44.57,1.11.89,1.83.89.97,0,1.91-.57,2.78-1.69.65-.83,1.26-1.74,1.85-2.63.58-.88,1.13-1.7,1.71-2.44.69-.92,1.27-1.6,1.84-2.25.03-.04.06-.07.09-.1.28.07.56.11.85.13-1.16,3.87-1.78,7.18-1.84,9.86-.05,2.58.47,4.75,1.63,6.83,1.65,3.27,5.15,8.7,10.27,8.7.58,0,1.16-.07,1.74-.22,2.32-.52,4.52-2.11,6.36-4.59,4-5.15,5.77-11.92,4.78-17.66.64-.11,1.29-.27,2-.48,1.61-.48,3.85-1.45,5.4-3.36,2.6-3.05,2.25-7.5-.83-10.37-1.54-1.51-3.75-2.59-6.19-3.03-.48-.1-.99-.17-1.51-.22-.03-.66-.24-1.3-.61-1.88-.51-.77-1.29-1.32-2.22-1.59.49-1.17.92-2.44,1.13-3.89.53-3.03.06-7.22-2.84-9.91-1.34-1.28-3.12-1.99-4.98-1.99h0Z"/>
          </g>
          <g>
            <path class="cls-15" d="M841.53,115.05c-.58.25-1.03.35-1.64.37-3.46.03-10.83-.07-15.72-1.81-2.27-.81-3.71-1.91-5.13-3.69-2.06-2.33-5.6-7.64-2.87-11.27,1.24-1.85,3.41-2.93,5.45-3.5,5.3-1.6,11.59-1.36,16.43,1.52,1.71,1.01,2.84,2.19,4.15,3.68,2.07,2.3,5.44,7.17,4.45,10.34-.73,2.07-3.26,3.39-5.11,4.35h-.02Z"/>
            <path class="cls-11" d="M846.7,110.38c1.01-1.1,1.59-2.45,2.21-3.78.85-1.78,1.7-3.5,2.02-5.64.5-2.81-.08-6.12-2.23-8.12-2.1-1.99-5.12-1.84-7.35-.14-1.41,1.08-2.5,2.52-3.3,4.06-.4.84-.44,1.28-.41,2.29.03.88.1,1.72.2,2.64.38,3.1,1.09,6.56,2.17,9.43.34.82.77,1.38,1.46,1.58,1.87.37,3.91-.93,5.22-2.29l.02-.02Z"/>
            <path class="cls-15" d="M837.8,116.09c-.45.45-.69.85-.93,1.41-1.27,3.27-3.8,10.29-3.92,15.59-.04,2.22.38,4.04,1.4,5.85,1.51,3.02,5.13,8.67,9.78,7.47,2.19-.48,3.96-2.14,5.23-3.86,4.06-5.23,5.95-12.92,3.68-18.81-.53-1.33-1.21-2.66-1.98-4.03-1.41-2.45-4.39-6.59-7.37-6.81-2.18-.09-4.32,1.8-5.87,3.17h-.01Z"/>
            <path class="cls-11" d="M845.32,111.52c1.43-.56,2.93-.64,4.43-.75,1.97-.18,3.88-.38,6.01.06,1.89.34,3.8,1.17,5.18,2.53,2.17,2.03,2.65,5.32.66,7.63-1.1,1.36-2.8,2.24-4.44,2.73-.83.25-1.63.44-2.46.53-.94.09-1.37-.03-2.3-.39-2.93-1.2-5.8-2.9-8.37-4.76-1.16-.94-3.08-2.01-2.9-3.49.39-1.88,2.42-3.32,4.18-4.06h.03Z"/>
            <path class="cls-14" d="M833.7,121.12c-1.69.41-3.36-.79-2.71-2.6.61-1.47,2.06-2.12,3.38-2.94,3.83-2.22,9.02-5.24,12.45-7.23,1.11-.62,2.21-1.3,3.49-1.37.79-.04,1.59.24,2,.86.54.83.29,1.79-.3,2.6-1.25,1.55-2.56,2.04-4.75,3.34-3.1,1.76-6.39,3.62-9.42,5.34-1.54.83-2.71,1.66-4.1,1.99h-.02Z"/>
            <path class="cls-14" d="M831.79,120.64c-1.75,1.24-6.92,1.96-9.31,1.95-1.09-.02-2-.17-2.85-.54-1.06-.5-1.65-1.22-.7-1.58.74-.24,1.68-.17,2.6-.12,1.22.08,2.53.21,3.77.24,1.59.06,3.63-.05,4.76-.14.33,0,2.04-.19,1.73.19h0Z"/>
            <path class="cls-14" d="M831.83,119.7c-1.98.75-5.59,4.44-7.03,6.32-.65.87-1.1,1.67-1.37,2.56-.53,2.1.47,1.91,1.43.67,1.22-1.56,2.33-3.49,3.57-5.08,1.31-1.75,2.3-2.69,3.34-4.07.09-.14.3-.43.06-.41h0Z"/>
          </g>
        </g>
        <g>
          <g>
            <path class="cls-8" d="M592.25,374.74c-.69,0-1.38-.03-2.05-.09-1.96-.13-4.73-.7-6.64-2.62-4.12-3.85-.75-10.66.89-13.4,1.03-1.93,2.43-3.37,4.5-4.64,2.48-1.5,5.99-2.85,10.45-4.02-.06-.05-.12-.11-.18-.17-.59-.57-.98-1.3-1.09-2.06-.26-.04-.52-.07-.79-.11-.86-.13-1.76-.26-2.89-.34-.99-.1-2.04-.12-3.06-.14-1.04-.02-2.12-.04-3.13-.14-1.92-.18-2.3-1.03-2.36-1.53-.15-1.27,1.42-1.8,1.94-1.97.73-.21,1.48-.31,2.3-.31.31,0,.63.01.96.04.7.06,1.65.19,2.7.39-.83-.99-1.54-1.94-1.98-2.64-.68-1.1-1.06-2.07-1.21-3.06-.1-.73-.09-1.7.43-2.3.27-.31.64-.48,1.04-.48.36,0,.71.13,1.06.39.75.62,1.22,1.46,1.68,2.27,0,0,.44.81.62,1.14.41.76.83,1.54,1.26,2.27.84,1.43,2.06,3.1,2.53,3.72.33-.24.73-.41,1.17-.51.31-.05.56-.08.81-.08.64,0,1.22.13,1.78.33-1.43-2.82-2.4-5.29-2.88-7.39-.55-2.44-.44-4.41.38-6.82.42-1.48,2.89-9.11,8.47-9.11.15,0,.31,0,.47.02,2.64.06,4.96,1.64,6.44,2.95,4.45,3.83,7.31,9.12,7.78,14.31.08,0,.16,0,.24,0,1.53,0,2.97.24,4.26.71,3.24,1.18,5.06,4.21,4.45,7.36-.64,3.48-3.63,5.87-6.22,6.94-1.68.75-3.32,1.04-4.92,1.25.67.98.83,2.15.41,3.07-.34.73-.93,1.26-1.71,1.53.44.74.79,1.45,1.07,2.19.85,2.08,1.1,4.31.69,6.26-.59,3.16-3.22,5.47-6.26,5.47-.3,0-.6-.02-.91-.07-2.16-.24-4.01-1.49-5.17-2.5-.76-.66-1.36-1.27-1.88-1.91-.06-.07-.11-.14-.16-.21-3.56,3.67-9.39,5.99-15.31,5.99h0Z"/>
            <path class="cls-9" d="M608.97,322.38c.13,0,.26,0,.39.02,2.21.05,4.27,1.29,5.85,2.7,4.17,3.59,7.33,8.99,7.5,14.58,0,0,0,.02,0,.03.39-.03.78-.05,1.18-.05,1.32,0,2.66.19,3.92.65,2.61.96,4.36,3.41,3.81,6.23-.53,2.88-2.99,5.12-5.62,6.21-1.97.88-3.86,1.08-5.81,1.32-.31.04-.62.09-.94.13.52.34.99.74,1.36,1.26.45.64.65,1.47.35,2.13-.38.82-1.2,1.15-2.11,1.15-.08,0-.16,0-.24,0-.07,0-.13-.02-.2-.03.73,1.01,1.39,2.09,1.89,3.38.73,1.77,1.05,3.81.65,5.69-.49,2.65-2.62,4.68-5.28,4.68-.25,0-.51-.02-.77-.06-1.73-.19-3.37-1.15-4.66-2.26-.66-.56-1.23-1.13-1.75-1.78-.39-.51-.58-.87-.72-1.35-3.41,4.36-9.64,6.76-15.53,6.76-.66,0-1.31-.03-1.96-.09-2.12-.14-4.46-.75-6.03-2.33-3.49-3.26-.68-9.3,1.04-12.19.98-1.82,2.28-3.14,4.16-4.3,3.49-2.11,8.6-3.56,12.33-4.43-.7-.39-1.33-.79-1.87-1.32l-.02-.02c-.58-.55-.86-1.29-.81-1.96-.18-.09-.37-.19-.57-.32-1.21-.16-2.36-.38-4-.5-2-.2-4.21-.09-6.17-.28-1.54-.14-2.24-.88-.2-1.55.63-.18,1.28-.26,1.99-.26.28,0,.58.01.89.04,1.4.12,3.73.54,5.75,1.13-1.62-1.54-3.29-3.62-4.1-4.91-.57-.92-.93-1.76-1.07-2.68-.12-.9.03-1.63.48-1.63.13,0,.29.06.47.2.6.49,1.04,1.32,1.49,2.11.58,1.07,1.18,2.23,1.81,3.29.8,1.37,1.98,3.01,2.67,3.92.05.07.16.22.29.4.18.08.36.16.52.24.25-.41.67-.74,1.3-.88.2-.03.4-.05.59-.05,1.31,0,2.47.73,3.67,1.31.14.07.29.15.44.23-1.7-2.99-3.51-6.65-4.24-9.82-.53-2.34-.38-4.13.35-6.27.83-2.89,3.26-8.44,7.52-8.44M608.97,320.38c-4.86,0-8.05,5.07-9.43,9.84-.86,2.54-.98,4.73-.39,7.31.39,1.72,1.1,3.68,2.1,5.84,0,0-.02,0-.02,0-.31,0-.63.03-.93.08h-.05s-.05.02-.05.02c-.23.05-.45.12-.66.2-.67-.93-1.43-2.03-1.95-2.93-.43-.72-.85-1.5-1.26-2.26-.18-.33-.35-.66-.53-.98l-.1-.17c-.48-.85-1.03-1.82-1.87-2.52l-.04-.03-.04-.03c-.53-.39-1.09-.59-1.66-.59-.69,0-1.33.29-1.79.82-.62.71-.85,1.74-.67,3.07.18,1.17.6,2.26,1.35,3.47.15.23.32.49.52.77-.1-.01-.19-.02-.28-.03-.39-.03-.73-.04-1.06-.04-.92,0-1.76.11-2.54.34h-.04s-.04.02-.04.02c-2.36.79-2.73,2.08-2.62,3.03.07.64.54,2.16,3.27,2.41,1.04.1,2.14.13,3.2.15,1.05.02,2.03.04,2.96.13,1.14.09,2.02.21,2.86.34.04,0,.08.01.12.02.09.26.2.52.34.77-3.86,1.1-6.96,2.34-9.23,3.72-2.19,1.34-3.74,2.94-4.86,5.02-3.7,6.21-3.95,11.53-.69,14.61,1.68,1.67,4.19,2.67,7.26,2.88.69.06,1.41.1,2.12.1,5.86,0,11.46-2.06,15.24-5.51.43.47.91.93,1.46,1.41,1.26,1.09,3.28,2.46,5.71,2.73.34.05.68.07,1.02.07,3.52,0,6.57-2.66,7.24-6.32.44-2.09.17-4.53-.77-6.82-.18-.46-.38-.92-.61-1.37.53-.38.95-.89,1.24-1.52.38-.84.42-1.79.16-2.71,1.24-.21,2.52-.53,3.85-1.13,2.83-1.18,6.09-3.81,6.8-7.69.71-3.62-1.39-7.11-5.09-8.47-1.22-.44-2.54-.7-3.95-.76-.72-5.16-3.63-10.31-8.03-14.09-1.56-1.39-4.07-3.09-7.05-3.18-.17-.01-.33-.02-.49-.02h0Z"/>
          </g>
          <g>
            <path class="cls-15" d="M609.17,352.4c-.52-.35-.84-.68-1.19-1.18-1.88-2.88-5.73-9.12-6.88-14.14-.53-2.34-.38-4.13.35-6.27.85-2.98,3.41-8.77,7.91-8.42,2.21.05,4.27,1.29,5.85,2.7,4.17,3.59,7.33,8.99,7.5,14.58.06,1.97-.32,3.55-.87,5.45-.82,2.96-3.1,8.39-6.29,9.25-2.13.49-4.58-.92-6.37-1.96h-.02Z"/>
            <path class="cls-11" d="M615.84,354.24c1.46.26,2.91.02,4.35-.17,1.95-.24,3.84-.44,5.81-1.32,2.62-1.09,5.09-3.33,5.62-6.21.55-2.82-1.2-5.28-3.81-6.23-1.66-.6-3.45-.75-5.17-.6-.91.11-1.3.32-2.14.88-.73.5-1.39,1-2.1,1.58-2.39,1.97-4.92,4.42-6.74,6.86-.51.73-.75,1.38-.54,2.06.69,1.76,2.87,2.78,4.7,3.15h.03Z"/>
            <path class="cls-15" d="M606.31,349.83c-.62-.13-1.08-.13-1.68-.03-3.42.68-10.66,2.31-15.16,5.04-1.88,1.16-3.18,2.47-4.16,4.3-1.72,2.88-4.53,8.93-1.04,12.19,1.57,1.58,3.91,2.18,6.03,2.33,6.55.61,14.01-1.91,17.73-6.97.84-1.15,1.58-2.44,2.33-3.81,1.3-2.49,3.18-7.2,1.77-9.82-1.09-1.88-3.81-2.66-5.79-3.22h-.02Z"/>
            <path class="cls-11" d="M614.15,353.69c1.23.89,2.1,2.11,3,3.31,1.2,1.56,2.39,3.05,3.16,5.07.73,1.77,1.05,3.81.65,5.69-.54,2.9-3.04,5.06-6.04,4.62-1.73-.19-3.37-1.15-4.66-2.26-.66-.56-1.23-1.13-1.75-1.78-.58-.75-.71-1.16-.9-2.14-.56-3.1-.66-6.41-.48-9.56.16-1.47.04-3.66,1.38-4.3,1.78-.67,4.07.25,5.63,1.34l.02.02Z"/>
            <path class="cls-14" d="M599.9,349.08c-1.24-1.19-1.14-3.24.73-3.66,1.56-.27,2.88.59,4.27,1.26,3.91,2.02,9.21,4.76,12.71,6.58,1.12.6,2.27,1.16,3.01,2.19.45.64.65,1.47.35,2.13-.41.89-1.34,1.2-2.34,1.14-1.96-.22-3.08-1.06-5.34-2.2-3.13-1.66-6.45-3.42-9.51-5.05-1.52-.84-2.84-1.38-3.86-2.38l-.02-.02Z"/>
            <path class="cls-14" d="M599.28,347.22c-1.98-.81-5.34-4.75-6.61-6.76-.57-.92-.93-1.76-1.07-2.68-.15-1.16.14-2.03.95-1.43.6.49,1.04,1.32,1.49,2.11.58,1.07,1.18,2.23,1.81,3.29.8,1.37,1.98,3.01,2.66,3.92.18.28,1.25,1.61.76,1.55h0Z"/>
            <path class="cls-14" d="M600.09,346.75c-1.69-1.26-6.7-2.31-9.05-2.51-1.08-.08-1.99-.03-2.88.22-2.04.68-1.35,1.41.2,1.55,1.96.19,4.17.08,6.17.28,2.16.16,3.48.49,5.19.63.17,0,.52.02.38-.17h0Z"/>
          </g>
        </g>
        <g>
          <g>
            <path class="cls-8" d="M160.76,148.08c-.47,0-.95-.06-1.42-.18-2.6-.5-4.63-2.44-5.86-3.97-3.76-4.51-5.71-10.2-5.31-15.4-1.6-.24-3.05-.72-4.32-1.44-2.99-1.7-4.3-4.99-3.17-8,1.2-3.33,4.55-5.19,7.28-5.82,1.15-.3,2.39-.44,3.85-.44.4,0,.81,0,1.21.02-.5-1.08-.46-2.26.1-3.1.45-.67,1.12-1.09,1.94-1.23-.31-.8-.54-1.56-.7-2.33-.5-2.19-.38-4.43.35-6.29.97-2.65,3.41-4.45,6.07-4.45.64,0,1.27.1,1.9.3,2.09.59,3.71,2.13,4.69,3.32.64.77,1.13,1.47,1.54,2.2.04.08.08.15.12.23,3.18-2.36,7.54-3.69,12.2-3.69,2.03,0,4.02.25,5.9.75,1.91.46,4.55,1.47,6.12,3.68,3.43,4.48-1.02,10.63-3.09,13.07-1.34,1.73-2.95,2.92-5.2,3.83-2.69,1.07-6.38,1.82-10.97,2.23.05.06.1.13.15.19.49.66.75,1.45.74,2.21.25.08.5.16.76.24.83.27,1.69.55,2.79.82.96.26,1.99.45,2.99.64,1.02.19,2.08.39,3.07.66,1.86.49,2.1,1.4,2.07,1.9-.07,1.28-1.7,1.54-2.24,1.62-.32.04-.6.05-.88.05h0c-.73,0-1.49-.1-2.39-.32-.68-.17-1.59-.46-2.6-.83.65,1.11,1.19,2.17,1.51,2.93.49,1.19.7,2.21.69,3.22-.08,2.34-1.31,2.52-1.68,2.52-.43,0-.84-.2-1.22-.58-.63-.73-.96-1.64-1.28-2.52l-.42-1.22c-.28-.82-.56-1.66-.87-2.46-.59-1.56-1.52-3.4-1.88-4.09-.37.18-.78.28-1.24.31h0c-.97,0-1.79-.29-2.51-.68.95,3.02,1.5,5.62,1.62,7.77.14,2.49-.29,4.42-1.5,6.66-.59,1.24-3.91,7.67-8.9,7.67Z"/>
            <path class="cls-9" d="M160.78,96.46c.52,0,1.05.08,1.59.25,1.67.47,3.14,1.69,4.22,3,.55.67,1.03,1.32,1.44,2.05.3.57.43.95.48,1.45,3.22-2.95,7.98-4.4,12.71-4.4,1.92,0,3.84.24,5.64.72,2.06.49,4.27,1.48,5.56,3.29,2.9,3.79-.87,9.29-3.04,11.85-1.27,1.64-2.76,2.72-4.81,3.55-3.79,1.51-9.08,2.09-12.89,2.33.63.5,1.18,1,1.63,1.61v.02c.49.64.65,1.41.49,2.07.16.12.33.25.51.41,1.16.36,2.27.76,3.86,1.15,1.94.52,4.14.78,6.04,1.3,1.5.39,2.06,1.23-.06,1.56-.24.03-.48.04-.72.04-.68,0-1.38-.11-2.15-.3-1.36-.35-3.59-1.15-5.48-2.06,1.34,1.79,2.65,4.11,3.24,5.52.41,1,.62,1.89.61,2.82-.03.86-.27,1.53-.68,1.53-.15,0-.31-.08-.5-.28-.51-.59-.81-1.47-1.12-2.33-.4-1.15-.79-2.4-1.24-3.55-.56-1.48-1.46-3.3-1.98-4.3-.03-.08-.12-.25-.22-.44-.17-.11-.33-.22-.47-.32-.31.37-.78.62-1.43.66,0,0-.01,0-.02,0-1.57,0-2.73-1.06-3.98-1.95-.13-.09-.26-.2-.39-.29,1.19,3.23,2.36,7.14,2.56,10.39.14,2.39-.31,4.14-1.38,6.13-1.21,2.54-4.19,7.14-8.02,7.14-.38,0-.78-.05-1.18-.15-2.17-.42-4-1.98-5.32-3.63-3.52-4.23-5.75-10.08-4.99-15.62,0,0,0-.02,0-.03-1.69-.14-3.41-.58-4.93-1.43-2.42-1.38-3.74-4.08-2.73-6.78.99-2.75,3.8-4.56,6.57-5.2,1.26-.33,2.45-.42,3.63-.42.77,0,1.54.04,2.32.07.31.01.63.02.94.03-.45-.42-.85-.89-1.13-1.46-.34-.71-.4-1.55,0-2.16.4-.59,1.02-.83,1.71-.83.26,0,.52.03.79.09.07.02.13.04.19.06-.55-1.12-1.03-2.29-1.3-3.64-.42-1.86-.4-3.93.3-5.72.82-2.26,2.85-3.81,5.14-3.81M160.78,94.46h0c-3.08,0-5.9,2.06-7.01,5.13-.78,1.99-.92,4.44-.37,6.85.1.48.22.97.38,1.46-.59.29-1.09.72-1.47,1.29-.51.77-.71,1.7-.6,2.64-1.49,0-2.76.16-3.99.47-2.98.69-6.63,2.75-7.97,6.46-1.29,3.46.19,7.25,3.62,9.2,1.14.64,2.4,1.11,3.77,1.4-.14,5.21,1.88,10.77,5.59,15.23,1.31,1.63,3.51,3.72,6.43,4.3.53.13,1.07.19,1.61.19,5.41,0,8.84-6.24,9.8-8.24,1.27-2.37,1.75-4.51,1.6-7.15-.1-1.76-.48-3.81-1.11-6.11.3.05.6.08.93.08h.13c.23-.02.46-.05.68-.09.51,1.03,1.07,2.24,1.44,3.21.31.79.59,1.62.86,2.43.12.36.24.71.36,1.06l.07.18c.33.92.71,1.97,1.43,2.8l.04.04.04.04c.71.73,1.44.89,1.93.89,1.18,0,2.59-.91,2.68-3.46.02-1.19-.22-2.33-.76-3.64-.11-.25-.23-.54-.38-.84.1.03.19.05.27.07,1.01.25,1.84.36,2.65.36.32,0,.64-.02.95-.05h.04s.04-.01.04-.01c2.46-.38,3.04-1.6,3.09-2.56.03-.65-.18-2.22-2.82-2.92-1.01-.27-2.09-.48-3.13-.67-1.03-.19-2-.38-2.89-.62-1.11-.27-1.95-.55-2.77-.81-.04-.01-.08-.03-.12-.04-.04-.27-.11-.55-.21-.81,3.99-.44,7.25-1.16,9.72-2.15,2.38-.96,4.17-2.28,5.63-4.15,4.67-5.52,5.8-10.72,3.1-14.29-1.38-1.93-3.69-3.32-6.68-4.04-1.96-.52-4.02-.78-6.13-.78-4.44,0-8.63,1.17-11.88,3.26-.35-.54-.74-1.07-1.21-1.63-1.06-1.29-2.83-2.96-5.18-3.64-.71-.22-1.44-.34-2.17-.34h0Z"/>
          </g>
          <g>
            <path class="cls-15" d="M164.73,117.37c.46.43.72.81.98,1.36,1.37,3.16,4.14,9.94,4.45,15.08.14,2.39-.31,4.14-1.38,6.13-1.33,2.79-4.81,8.09-9.19,7-2.17-.42-4-1.98-5.32-3.63-3.52-4.23-5.75-10.08-4.99-15.62.26-1.96.9-3.45,1.76-5.23,1.3-2.79,4.45-7.76,7.74-8.09,2.18-.14,4.37,1.67,5.96,2.99h.01Z"/>
            <path class="cls-11" d="M158.45,114.46c-1.4-.5-2.86-.5-4.32-.55-1.96-.09-3.86-.2-5.95.34-2.77.64-5.57,2.45-6.57,5.2-1.01,2.69.31,5.4,2.73,6.78,1.53.87,3.28,1.31,5,1.44.92.04,1.34-.1,2.25-.51.8-.37,1.54-.76,2.34-1.21,2.69-1.55,5.58-3.54,7.78-5.65.62-.63.97-1.24.88-1.95-.39-1.85-2.37-3.22-4.12-3.88h-.03Z"/>
            <path class="cls-15" d="M167.13,120.38c.59.23,1.05.3,1.65.31,3.49-.11,10.89-.52,15.78-2.47,2.05-.83,3.55-1.91,4.81-3.55,2.17-2.56,5.94-8.06,3.04-11.85-1.29-1.81-3.5-2.8-5.56-3.29-6.36-1.69-14.14-.43-18.64,3.94-1.01,1-1.97,2.15-2.92,3.38-1.7,2.24-4.32,6.58-3.37,9.39.77,2.03,3.32,3.26,5.18,4.13h.02Z"/>
            <path class="cls-11" d="M160.03,115.28c-1.07-1.09-1.72-2.43-2.41-3.76-.93-1.74-1.85-3.4-2.28-5.52-.42-1.86-.4-3.93.3-5.72,1.01-2.77,3.84-4.49,6.73-3.56,1.67.47,3.14,1.69,4.22,3,.55.67,1.03,1.32,1.44,2.05.45.83.51,1.26.53,2.26.04,3.15-.4,6.43-1.1,9.51-.41,1.43-.64,3.6-2.07,4.01-1.87.37-3.97-.92-5.33-2.25l-.02-.02Z"/>
            <path class="cls-14" d="M173.32,122.18c1.03,1.38.59,3.38-1.33,3.49-1.58,0-2.74-1.06-4-1.95-3.52-2.64-8.29-6.21-11.45-8.59-1-.78-2.05-1.52-2.6-2.66-.34-.71-.4-1.55,0-2.16.55-.81,1.52-.96,2.5-.74,1.9.54,2.86,1.55,4.9,3.05,2.81,2.16,5.79,4.44,8.55,6.55,1.36,1.08,2.57,1.83,3.41,2.98v.02Z"/>
            <path class="cls-14" d="M173.62,124.12c1.81,1.12,4.48,5.56,5.4,7.76.41,1,.62,1.89.61,2.82-.04,1.17-.47,1.98-1.18,1.25-.51-.59-.81-1.47-1.12-2.33-.4-1.15-.79-2.4-1.24-3.55-.56-1.48-1.46-3.3-1.98-4.3-.13-.3-.97-1.79-.49-1.66h0Z"/>
            <path class="cls-14" d="M172.75,124.44c1.46,1.52,6.23,3.39,8.51,3.98,1.05.26,1.96.36,2.87.25,2.12-.33,1.56-1.17.06-1.56-1.9-.51-4.1-.77-6.04-1.3-2.11-.52-3.35-1.06-5.02-1.48-.16-.03-.51-.11-.4.1h0Z"/>
          </g>
        </g>
        <g>
          <g>
            <path class="cls-8" d="M161.28,399.14c-.2,0-.41,0-.61-.03-3.53-.29-6.2-3.03-7.52-5.5-.91-1.6-1.36-3.2-1.73-4.77-.65.55-1.42.85-2.18.85-.29,0-.57-.05-.84-.14-.77-.26-1.35-.8-1.69-1.55-.69.51-1.36.93-2.07,1.28-1.67.89-3.47,1.36-5.19,1.36-.32,0-.65-.02-.97-.05-3.62-.31-6.24-3.15-6.09-6.6.02-2.17,1.09-4.13,1.98-5.39.58-.82,1.13-1.48,1.72-2.06.06-.06.13-.12.19-.17-4.54-3.59-7.54-10.09-7.57-16.7-.06-1.97.23-4.78,1.95-6.87,1.25-1.63,3.15-2.47,5.63-2.47,3.02,0,6.18,1.28,7.8,2.04,2.02.84,3.59,2.08,5.06,4.02,1.74,2.32,3.43,5.68,5.03,10.01.05-.06.1-.13.15-.19.51-.64,1.2-1.1,1.94-1.29.01-.27.02-.53.04-.8.04-.87.09-1.77.06-2.9,0-.99-.08-2.04-.16-3.06-.08-1.04-.17-2.11-.17-3.13,0-.98.2-1.7.62-2.12.26-.26.59-.4.94-.4.98,0,1.54,1.01,1.88,1.77.38.96.56,1.94.59,3.22,0,.7-.03,1.66-.12,2.73.9-.92,1.78-1.72,2.44-2.23,1.03-.78,1.95-1.26,2.93-1.51.4-.09.76-.14,1.09-.14,1,0,1.45.43,1.65.79.16.28.35.86-.11,1.64-.54.8-1.33,1.36-2.1,1.9l-1.07.73c-.72.48-1.46.98-2.14,1.48-1.34.97-2.88,2.35-3.46,2.88.27.31.48.68.62,1.11.26.93.19,1.8,0,2.61,2.66-1.71,5.03-2.91,7.08-3.6,1.37-.46,2.59-.67,3.83-.67.93,0,1.91.12,2.99.38,1.6.29,9.81,2.09,9.93,8,.2,2.64-1.14,5.1-2.3,6.69-3.37,4.81-8.35,8.17-13.48,9.15.19,1.61.1,3.13-.26,4.54-.8,3.1-3.32,5.18-6.28,5.18Z"/>
            <path class="cls-9" d="M136.29,351.32c2.68,0,5.59,1.1,7.37,1.94,1.91.8,3.35,1.96,4.69,3.72,2.45,3.26,4.39,8.21,5.62,11.83.32-.73.65-1.4,1.13-2v-.02c.51-.63,1.21-.98,1.88-1,.07-.19.16-.39.27-.6.04-1.22.14-2.39.1-4.03,0-2.01-.33-4.2-.33-6.17,0-.89.21-1.53.56-1.52.26,0,.59.34.96,1.18.34.85.48,1.76.51,2.84.02,1.4-.17,3.76-.55,5.83,1.37-1.76,3.28-3.63,4.48-4.57.86-.65,1.66-1.1,2.56-1.33.3-.07.59-.11.84-.11.68,0,1.06.28.68.92-.43.64-1.21,1.16-1.95,1.69-1.01.69-2.11,1.39-3.1,2.13-1.28.93-2.8,2.27-3.64,3.04-.07.05-.21.18-.37.33-.06.19-.12.37-.19.54.44.2.8.59,1.01,1.21.42,1.53-.3,2.92-.83,4.37-.06.15-.12.31-.18.46,2.81-1.99,6.27-4.15,9.36-5.18,1.27-.42,2.39-.62,3.52-.62.89,0,1.79.12,2.76.35,3.05.56,9.07,2.53,9.16,7.05.16,2.21-.87,4.38-2.11,6.09-3.16,4.5-8.22,8.18-13.77,8.9,0,0-.02,0-.03,0,.31,1.67.33,3.44-.1,5.13-.65,2.53-2.69,4.43-5.31,4.43-.17,0-.34,0-.52-.02-2.91-.24-5.39-2.47-6.73-4.98-1.07-1.87-1.46-3.74-1.88-5.65-.07-.31-.15-.61-.22-.92-.29.55-.64,1.06-1.12,1.47-.45.39-1.02.64-1.57.64-.18,0-.35-.03-.52-.08-.93-.32-1.32-1.22-1.36-2.22,0-.07,0-.13.01-.2-.94.82-1.94,1.59-3.17,2.21-1.44.76-3.1,1.25-4.74,1.25-.29,0-.58-.02-.86-.05-2.94-.25-5.33-2.53-5.2-5.56.02-1.74.81-3.47,1.79-4.86.5-.71,1-1.34,1.6-1.92.47-.44.81-.66,1.28-.85-5.2-3.29-8.32-10.3-8.35-16.75-.06-2.12.31-4.51,1.72-6.23,1.2-1.56,2.97-2.11,4.85-2.11M136.29,349.32c-2.75,0-4.97.99-6.42,2.86-1.5,1.84-2.24,4.43-2.16,7.51.04,6.48,2.81,12.86,7.1,16.74-.43.47-.84.99-1.26,1.6-.96,1.36-2.12,3.5-2.16,5.95-.16,3.99,2.85,7.25,7.03,7.61.3.03.67.05,1.03.05,1.88,0,3.85-.51,5.68-1.49.44-.22.88-.47,1.31-.75.43.49.98.87,1.63,1.09.38.13.77.19,1.17.19.52,0,1.04-.1,1.53-.3.34,1.22.78,2.46,1.5,3.73,1.45,2.7,4.39,5.68,8.32,6.01.22.02.45.03.68.03,3.42,0,6.33-2.38,7.25-5.93.32-1.26.45-2.6.37-4.01,5.06-1.22,9.9-4.63,13.23-9.38,1.23-1.69,2.67-4.36,2.47-7.33-.14-5.13-5.63-7.96-10.75-8.91-1.14-.26-2.17-.39-3.17-.39-1.36,0-2.67.23-4.15.72-1.67.56-3.55,1.45-5.61,2.67-.03-.31-.09-.62-.17-.94v-.05s-.03-.05-.03-.05c-.07-.22-.16-.43-.26-.63.86-.76,1.88-1.62,2.72-2.23.68-.5,1.41-1,2.12-1.47.31-.21.62-.42.93-.62l.16-.11c.8-.56,1.71-1.2,2.33-2.11l.03-.05.03-.05c.75-1.26.34-2.27.13-2.65-.27-.48-.97-1.3-2.52-1.3-.4,0-.83.05-1.29.16-1.15.29-2.19.82-3.32,1.68-.22.17-.46.37-.71.59,0-.1,0-.19,0-.28-.03-1.41-.24-2.53-.65-3.56v-.04s-.03-.04-.03-.04c-.26-.58-1.05-2.36-2.79-2.36h0c-.62,0-1.2.25-1.65.7-.62.62-.92,1.58-.91,2.84,0,1.04.09,2.14.17,3.2.08,1.04.16,2.03.16,2.96.03,1.15-.02,2.03-.06,2.88,0,.04,0,.08,0,.13-.25.11-.5.25-.73.42-1.47-3.73-3.02-6.69-4.61-8.82-1.55-2.05-3.29-3.43-5.47-4.35-1.71-.8-5-2.11-8.19-2.11h0Z"/>
          </g>
          <g>
            <path class="cls-15" d="M152.72,376.34c.3-.55.6-.91,1.05-1.3,2.69-2.15,8.51-6.6,13.4-8.24,2.27-.76,4.08-.78,6.27-.27,3.05.56,9.07,2.53,9.16,7.05.17,2.21-.87,4.38-2.11,6.09-3.16,4.5-8.22,8.18-13.77,8.9-1.96.26-3.56.03-5.51-.33-3.03-.53-8.65-2.26-9.83-5.35-.7-2.07.47-4.65,1.33-6.53v-.02Z"/>
            <path class="cls-11" d="M151.55,383.17c-.12,1.48.26,2.89.6,4.31.43,1.91.82,3.78,1.88,5.65,1.34,2.51,3.82,4.74,6.73,4.98,2.86.27,5.13-1.71,5.83-4.41.44-1.71.4-3.51.09-5.2-.2-.9-.44-1.27-1.08-2.04-.57-.67-1.13-1.29-1.78-1.94-2.2-2.19-4.88-4.46-7.49-6.04-.77-.44-1.45-.61-2.11-.34-1.68.86-2.49,3.13-2.67,4.99v.03Z"/>
            <path class="cls-15" d="M154.99,373.25c.07-.63.02-1.09-.14-1.68-1.02-3.34-3.35-10.38-6.51-14.59-1.34-1.76-2.77-2.92-4.69-3.72-3.04-1.43-9.33-3.63-12.23.16-1.41,1.72-1.79,4.1-1.72,6.23.03,6.58,3.28,13.76,8.68,16.96,1.23.72,2.59,1.34,4.02,1.94,2.61,1.05,7.48,2.45,9.94.79,1.76-1.27,2.27-4.06,2.64-6.08v-.02Z"/>
            <path class="cls-11" d="M151.92,381.43c-.77,1.32-1.9,2.3-3,3.31-1.43,1.35-2.8,2.68-4.73,3.64-1.69.9-3.69,1.42-5.6,1.21-2.94-.25-5.33-2.53-5.2-5.56.02-1.74.81-3.47,1.79-4.86.5-.71,1-1.34,1.6-1.92.69-.65,1.09-.82,2.04-1.1,3.03-.86,6.31-1.29,9.47-1.42,1.48.02,3.64-.32,4.41.95.85,1.71.15,4.08-.78,5.74v.02Z"/>
            <path class="cls-14" d="M155.11,366.8c1.07-1.36,3.11-1.45,3.71.37.42,1.53-.3,2.93-.83,4.37-1.63,4.09-3.83,9.63-5.29,13.29-.49,1.17-.93,2.37-1.89,3.21-.59.51-1.39.79-2.09.56-.93-.32-1.32-1.22-1.36-2.22.03-1.98.75-3.16,1.67-5.53,1.35-3.28,2.77-6.75,4.09-9.96.69-1.6,1.09-2.96,1.99-4.07v-.02Z"/>
            <path class="cls-14" d="M156.91,366c.61-2.05,4.2-5.78,6.08-7.24.86-.65,1.66-1.1,2.56-1.33,1.14-.26,2.04-.06,1.52.81-.43.64-1.21,1.16-1.95,1.69-1.01.69-2.11,1.39-3.1,2.13-1.28.93-2.8,2.27-3.64,3.04-.26.2-1.48,1.41-1.47.91h0Z"/>
            <path class="cls-14" d="M157.44,366.75c1.09-1.8,1.64-6.9,1.61-9.26-.03-1.08-.17-1.99-.51-2.84-.88-1.96-1.54-1.2-1.53.35,0,1.97.33,4.16.33,6.17.05,2.17-.15,3.51-.12,5.23.01.17.03.52.21.36h0Z"/>
          </g>
        </g>
        <g>
          <g>
            <path class="cls-8" d="M496.59,821.86c-1.42,0-2.81-.44-4.01-1.26-3.39-2.27-4.55-6.54-4.49-9.77-.02-2.25.47-4.22,1.03-6.1-.07.02-.14.03-.21.05-.3.06-.6.09-.89.09-1.02,0-1.91-.36-2.51-1.02-.65-.72-.91-1.64-.78-2.63-.83.12-1.6.17-2.38.17-.22,0-.44,0-.66-.01-2.61-.05-5.09-.81-6.96-2.14-3.45-2.32-4.51-6.62-2.43-9.99,1.24-2.18,3.42-3.56,5.02-4.33,1.05-.51,1.97-.87,2.9-1.12.17-.04.33-.08.49-.11-2.69-6.23-2.08-14.64,1.67-21.45,1.05-2.03,2.92-4.71,5.82-5.84.85-.37,1.78-.57,2.73-.57,4.8,0,8.99,4.83,11.06,7.71,1.57,1.99,2.46,4.13,2.86,6.92.47,3.42.27,7.91-.6,13.38.18-.09.36-.17.54-.25.54-.22,1.08-.34,1.64-.34.37,0,.73.05,1.08.15.01,0,.03-.02.04-.03.18-.29.35-.58.54-.87.54-.87,1.1-1.77,1.72-2.96.57-1.02,1.08-2.14,1.58-3.23.51-1.11,1.03-2.25,1.61-3.29.45-.82,1.19-1.8,2.15-1.8.38,0,.74.16,1,.45.43.47.58,1.24.48,2.44-.15,1.17-.52,2.26-1.21,3.57-.42.78-1.12,1.9-1.95,3.11,1.61-.5,3.16-.87,4.21-1.03.64-.09,1.2-.14,1.73-.14.73,0,1.4.08,2.06.26,1.4.4,2.19,1.06,2.29,1.9.04.3.02,1.06-.95,1.63-.97.5-2.09.61-3.16.73l-.19.02c-.44.04-.87.08-1.3.11-1.02.08-2.07.17-3.06.3-2.06.25-4.62.84-5.35,1.02,0,0-.01,0-.02,0,.13.49.15,1.03.04,1.59-.3,1.23-.98,2.14-1.75,2.9,1.4-.1,2.72-.14,3.95-.14,2.18,0,4.12.15,5.75.46,2.84.54,4.89,1.56,7.07,3.54,1.46,1.2,8.75,7.63,5.58,13.63-1.28,2.77-4.02,4.51-6.09,5.47-3.73,1.81-7.85,2.77-11.89,2.77-2.53,0-4.93-.38-7.15-1.14-.72,1.8-1.69,3.34-2.88,4.6-1.57,1.65-3.66,2.59-5.76,2.59Z"/>
            <path class="cls-9" d="M490.92,756.82c4.29,0,8.31,4.59,10.25,7.29,1.5,1.9,2.32,3.91,2.68,6.47.65,4.73-.18,10.91-.98,15.32.74-.57,1.47-1.07,2.29-1.4h.02c.41-.18.83-.26,1.24-.26.45,0,.88.1,1.25.29.18-.15.38-.31.61-.46.73-1.22,1.51-2.36,2.4-4.07,1.14-2.05,2.06-4.49,3.18-6.5.43-.79.92-1.28,1.28-1.28.37,0,.6.52.48,1.79-.14,1.07-.51,2.07-1.1,3.2-.78,1.44-2.32,3.75-3.89,5.65,2.41-1.02,5.42-1.85,7.19-2.13.55-.08,1.07-.12,1.57-.12.63,0,1.22.07,1.8.22,1.31.38,2.12,1.1,1.09,1.69-.81.41-1.9.51-2.96.62-1.42.13-2.95.23-4.38.42-1.84.22-4.16.73-5.45,1.04-.1.02-.31.07-.57.12-.17.16-.34.31-.5.45.33.46.49,1.07.35,1.81-.44,1.8-1.98,2.82-3.34,4-.14.12-.3.24-.45.36,2.19-.24,4.61-.42,6.97-.42,1.95,0,3.87.12,5.57.44,2.76.52,4.62,1.52,6.58,3.3,2.8,2.3,7.84,7.75,5.37,12.43-1.09,2.35-3.38,3.99-5.62,5.03-3.48,1.69-7.49,2.68-11.47,2.68-2.64,0-5.27-.44-7.71-1.41-.01,0-.02,0-.03-.01-.64,1.89-1.62,3.72-3.02,5.2-1.37,1.44-3.19,2.28-5.03,2.28-1.18,0-2.36-.34-3.45-1.08-2.85-1.91-4.11-5.6-4.06-8.93-.03-2.53.63-4.66,1.29-6.86.1-.35.2-.71.3-1.06-.61.4-1.26.72-1.98.87-.23.05-.46.07-.69.07-.68,0-1.34-.22-1.77-.69-.77-.86-.66-2-.13-3.05.04-.07.08-.13.13-.2-1.25.27-2.52.47-3.9.47-.2,0-.4,0-.61-.01-2.24-.04-4.58-.65-6.42-1.95-2.87-1.93-4.02-5.63-2.16-8.65,1.01-1.77,2.81-3.09,4.6-3.95.91-.44,1.79-.8,2.73-1.06.49-.12.86-.18,1.23-.18.18,0,.36.01.56.04-3.45-6.33-2.66-15.29.98-21.91,1.14-2.21,2.88-4.44,5.31-5.4.79-.34,1.58-.5,2.36-.5M490.92,754.82c-1.08,0-2.13.22-3.13.65-3.16,1.26-5.17,4.11-6.31,6.3-3.67,6.69-4.42,14.86-2.12,21.23-.8.26-1.6.58-2.49,1.01-1.72.83-4.06,2.32-5.45,4.73-2.34,3.83-1.16,8.7,2.76,11.33,2,1.42,4.67,2.24,7.5,2.29.19,0,.42.01.65.01.46,0,.93-.02,1.4-.06.12.81.46,1.55,1.02,2.18.75.82,1.81,1.29,3.01,1.35-.39,1.53-.69,3.15-.67,4.98-.05,3.5,1.22,8.11,4.95,10.6,1.35.93,2.93,1.42,4.56,1.42,2.37,0,4.73-1.06,6.48-2.9,1.09-1.15,2-2.51,2.72-4.06,2.07.61,4.28.91,6.59.91,4.19,0,8.45-1,12.34-2.88,2.18-1.01,5.1-2.87,6.54-5.94,2.69-5.16-1.25-11.03-5.85-14.83-2.31-2.09-4.5-3.18-7.52-3.75-1.7-.31-3.69-.47-5.94-.47-.59,0-1.2.01-1.82.03.25-.45.45-.95.59-1.51v-.05s.02-.05.02-.05c.06-.34.09-.68.08-1.01,1.1-.25,2.87-.62,4.36-.8.98-.13,2.02-.22,3.03-.3.44-.04.88-.07,1.3-.11l.22-.02c1.11-.12,2.37-.25,3.46-.8l.05-.02.05-.03c1.03-.6,1.57-1.58,1.45-2.61-.09-.73-.6-2.04-2.99-2.73-.78-.21-1.54-.3-2.35-.3-.58,0-1.19.05-1.86.14-.51.08-1.12.2-1.81.36.21-.35.4-.67.55-.96.75-1.42,1.16-2.65,1.32-3.89v-.04s0-.04,0-.04c.08-.94.1-2.29-.74-3.2-.46-.5-1.07-.77-1.74-.77-.8,0-1.98.4-3.03,2.32-.59,1.06-1.12,2.22-1.64,3.35-.49,1.07-1,2.18-1.53,3.14-.63,1.19-1.18,2.08-1.71,2.93-.06.1-.13.21-.19.31-.2-.03-.41-.04-.61-.04-.32,0-.64.03-.95.09.67-4.83.79-8.86.36-12.01-.41-2.92-1.39-5.27-3.06-7.41-2.19-3.04-6.62-8.08-11.85-8.08h0Z"/>
          </g>
          <g>
            <path class="cls-15" d="M497.3,792.9c.62-.4,1.13-.59,1.82-.73,3.98-.67,12.47-1.91,18.41-.81,2.76.52,4.62,1.52,6.58,3.3,2.8,2.3,7.84,7.75,5.37,12.43-1.09,2.35-3.38,3.99-5.62,5.03-5.8,2.81-13.08,3.69-19.17,1.27-2.15-.85-3.67-1.99-5.45-3.47-2.8-2.26-7.57-7.24-7.01-11.07.46-2.52,3.13-4.49,5.08-5.94h.02Z"/>
            <path class="cls-11" d="M492.22,799.22c-.96,1.45-1.38,3.11-1.84,4.76-.65,2.2-1.31,4.33-1.29,6.86-.05,3.33,1.21,7.03,4.06,8.93,2.78,1.91,6.23,1.17,8.48-1.19,1.42-1.5,2.41-3.36,3.05-5.28.31-1.04.27-1.55.05-2.71-.2-1.01-.43-1.97-.71-3-1.01-3.49-2.46-7.34-4.23-10.45-.54-.89-1.14-1.45-1.97-1.55-2.21-.08-4.33,1.79-5.58,3.59l-.02.03Z"/>
            <path class="cls-15" d="M501.39,791.02c.43-.6.64-1.11.82-1.79.86-4,2.48-12.53,1.64-18.65-.36-2.56-1.18-4.57-2.68-6.47-2.3-3.19-7.49-9.02-12.62-6.79-2.43.95-4.17,3.19-5.31,5.4-3.71,6.76-4.47,15.95-.77,22.3.85,1.43,1.89,2.84,3.01,4.28,2.07,2.56,6.26,6.77,9.73,6.47,2.53-.3,4.64-2.86,6.16-4.73v-.02Z"/>
            <path class="cls-11" d="M493.59,797.66c-1.54.91-3.25,1.27-4.95,1.68-2.24.57-4.39,1.15-6.92,1.04-2.24-.04-4.58-.65-6.42-1.95-2.87-1.93-4.02-5.63-2.16-8.65,1.01-1.77,2.81-3.09,4.6-3.95.91-.44,1.79-.8,2.73-1.06,1.07-.27,1.58-.22,2.72.03,3.6.84,7.2,2.27,10.5,3.93,1.51.86,3.91,1.74,3.98,3.48-.11,2.23-2.17,4.26-4.06,5.43l-.03.02Z"/>
            <path class="cls-14" d="M505.19,784.49c1.86-.78,4.01.28,3.59,2.49-.44,1.8-1.98,2.82-3.34,4-3.99,3.26-9.4,7.68-12.99,10.6-1.17.92-2.3,1.9-3.76,2.21-.9.19-1.88.01-2.46-.62-.77-.86-.66-2-.13-3.05,1.15-2.01,2.57-2.81,4.85-4.71,3.25-2.59,6.68-5.34,9.86-7.87,1.62-1.24,2.81-2.41,4.35-3.04h.02Z"/>
            <path class="cls-14" d="M507.48,784.69c1.79-1.75,7.59-3.53,10.34-3.96,1.25-.18,2.33-.18,3.38.1,1.31.38,2.12,1.1,1.09,1.69-.81.41-1.9.51-2.96.62-1.42.13-2.95.23-4.38.42-1.84.22-4.16.73-5.45,1.04-.38.06-2.31.6-2.02.1h0Z"/>
            <path class="cls-14" d="M507.6,785.77c2.14-1.23,5.61-6.13,6.92-8.56.59-1.12.96-2.13,1.1-3.2.22-2.51-.89-2.1-1.76-.51-1.12,2.01-2.03,4.45-3.18,6.5-1.18,2.25-2.15,3.51-3.1,5.29-.08.18-.26.55,0,.48h0Z"/>
          </g>
        </g>
        <g>
          <g>
            <path class="cls-8" d="M571.16,957.85c-1.7,0-3.3-.68-4.49-1.9-1.59-1.53-2.3-3.69-2.61-5.22-.21-1.01-.31-1.87-.33-2.71,0-.1,0-.19,0-.28-.81.12-1.64.18-2.48.18h0c-5.25,0-11.08-2.39-15.2-6.23-1.5-1.33-3.38-3.5-3.72-6.23-.93-5.66,6.02-9.05,9.05-10.24,1.56-.7,3.12-1.03,4.87-1.03.52,0,1.07.03,1.64.09,2.94.33,6.62,1.43,10.96,3.28-.02-.09-.03-.18-.04-.28-.12-.83.03-1.66.4-2.34-.19-.19-.38-.39-.57-.58-.62-.64-1.26-1.31-2.12-2.08-.74-.69-1.57-1.37-2.38-2.02-.83-.67-1.68-1.35-2.44-2.06-.97-.9-1.33-1.76-1.04-2.48.08-.2.42-.86,1.43-.86.39,0,.86.1,1.44.3.98.38,1.83.94,2.8,1.81.53.49,1.23,1.2,1.97,2.03-.06-1.33-.03-2.56.05-3.41.14-1.3.43-2.32.93-3.22.43-.74,1.13-1.61,2.05-1.61.26,0,1.12.09,1.45,1.26.22.96.08,1.93-.06,2.88,0,0-.15.92-.21,1.3-.15.87-.29,1.76-.4,2.62-.22,1.69-.27,3.82-.28,4.6.42.01.85.12,1.27.31.88.47,1.49,1.13,1.95,1.85.6-3.19,1.36-5.8,2.28-7.8,1.07-2.3,2.38-3.83,4.54-5.25,1.04-.76,4.83-3.35,8.56-3.35,1.69,0,3.13.53,4.29,1.57,2.09,1.69,2.98,4.4,3.35,6.37,1.21,5.86.22,11.91-2.64,16.39,1.33.98,2.4,2.12,3.2,3.38,1.87,2.96,1.46,6.53-.99,8.69-1.54,1.38-3.73,2.15-6.16,2.15-1.06,0-2.12-.14-3.16-.42-1.83-.44-3.34-1.24-4.77-2.07-.06,1.21-.66,2.26-1.57,2.75-.42.22-.87.33-1.33.33-.33,0-.67-.06-1-.17-.09.75-.24,1.58-.5,2.45-.6,2.21-1.79,4.16-3.33,5.47-1.3,1.16-2.95,1.81-4.63,1.81Z"/>
            <path class="cls-9" d="M590.41,910.16c1.31,0,2.57.37,3.61,1.31,1.75,1.42,2.64,3.7,3.04,5.82,1.13,5.49.32,11.81-3.02,16.43,0,0-.01.02-.02.02,1.45.94,2.79,2.16,3.74,3.65,1.51,2.4,1.4,5.47-.8,7.4-1.48,1.34-3.49,1.9-5.5,1.9-.99,0-1.97-.14-2.9-.39-2.14-.52-3.79-1.53-5.51-2.55-.28-.16-.56-.32-.83-.48.2.6.34,1.21.31,1.86-.03.8-.39,1.59-1.05,1.94-.28.15-.57.22-.86.22-.61,0-1.21-.3-1.74-.76-.05-.05-.09-.1-.14-.15-.04,1.27-.18,2.55-.58,3.9-.51,1.88-1.53,3.72-3.02,5-1.14,1.02-2.57,1.57-3.98,1.57s-2.71-.51-3.77-1.6c-1.28-1.23-2.01-3.02-2.35-4.72-.18-.86-.29-1.68-.31-2.53,0-.66.07-1.06.26-1.54-1.21.31-2.46.45-3.74.45-5.16,0-10.66-2.37-14.51-5.96-1.62-1.43-3.13-3.38-3.41-5.63-.78-4.8,5.24-7.93,8.42-9.18,1.47-.66,2.91-.96,4.5-.96.49,0,1,.03,1.53.09,4.13.46,9.16,2.48,12.7,4.1-.32-.75-.58-1.46-.69-2.23v-.02c-.12-.8.11-1.57.56-2.09-.09-.18-.18-.39-.26-.61-.87-.88-1.67-1.77-2.91-2.89-1.49-1.4-3.34-2.69-4.8-4.06-.89-.82-1.16-1.62-.3-1.62.26,0,.62.07,1.11.24.87.34,1.64.87,2.46,1.61,1.05.96,2.67,2.75,3.93,4.48-.35-2.25-.4-4.97-.26-6.51.11-1.09.35-2,.8-2.82.37-.64.82-1.09,1.17-1.09.21,0,.38.16.49.53.17.77.02,1.71-.11,2.63-.19,1.23-.44,2.54-.59,3.78-.21,1.6-.27,3.66-.29,4.82,0,.09-.01.28-.02.5.1.18.19.35.27.52.2-.08.43-.13.66-.13.29,0,.61.07.94.22,1.43.75,1.96,2.27,2.66,3.67.07.15.14.31.21.45.49-3.47,1.31-7.55,2.69-10.56,1.03-2.22,2.27-3.57,4.19-4.84,1.76-1.3,5.03-3.18,8.01-3.18M590.41,908.16s0,0,0,0c-3.98,0-7.96,2.67-9.15,3.54-2.27,1.51-3.72,3.2-4.85,5.64-.76,1.64-1.41,3.68-1.95,6.07-.26-.21-.54-.4-.86-.56l-.04-.02-.05-.02c-.22-.1-.45-.19-.68-.25.04-1.18.11-2.55.25-3.61.1-.85.25-1.74.39-2.6.06-.38.13-.76.18-1.12l.03-.2c.14-.99.3-2.1.06-3.19v-.05s-.03-.05-.03-.05c-.42-1.46-1.52-1.98-2.41-1.98-.77,0-1.9.36-2.9,2.08-.58,1.05-.92,2.19-1.07,3.62-.03.3-.05.64-.06,1.02-.09-.09-.18-.18-.27-.25-1.07-.96-2.04-1.59-3.08-2h-.04s-.04-.03-.04-.03c-.68-.24-1.26-.35-1.77-.35-1.3,0-2.07.77-2.36,1.5-.26.65-.43,1.98,1.3,3.59.77.73,1.64,1.43,2.49,2.11.83.67,1.61,1.3,2.31,1.95.87.78,1.5,1.43,2.1,2.06.04.04.07.07.1.11-.1.29-.17.59-.21.89-3.81-1.53-7.1-2.45-9.8-2.76-.61-.07-1.2-.1-1.75-.1-1.88,0-3.56.36-5.28,1.12-3.27,1.3-10.64,4.96-9.62,11.32.31,2.39,1.71,4.74,4.05,6.82,4.3,4,10.37,6.48,15.86,6.48.51,0,1.02-.02,1.52-.06.05.66.15,1.33.31,2.08.34,1.66,1.11,4.01,2.9,5.74,1.38,1.41,3.22,2.18,5.18,2.18s3.82-.74,5.32-2.08c1.65-1.41,2.95-3.54,3.61-5.96.15-.49.27-.99.37-1.52.05,0,.11,0,.16,0,.63,0,1.23-.15,1.79-.45.83-.45,1.46-1.19,1.81-2.1,1.14.61,2.38,1.15,3.84,1.51,1.11.3,2.25.45,3.39.45,2.68,0,5.11-.86,6.84-2.41,2.81-2.47,3.29-6.57,1.16-9.95-.71-1.13-1.63-2.16-2.73-3.08,2.63-4.6,3.5-10.57,2.3-16.37-.39-2.09-1.36-5.01-3.7-6.93-1.33-1.19-2.99-1.79-4.92-1.79h0Z"/>
          </g>
          <g>
            <path class="cls-15" d="M575.19,935.56c-.2-.61-.25-1.07-.23-1.69.28-3.5,1.05-10.92,3.25-15.69,1.03-2.22,2.27-3.57,4.19-4.84,2.54-1.87,8.21-4.96,11.62-1.87,1.75,1.42,2.64,3.7,3.04,5.82,1.13,5.49.32,11.81-3.02,16.43-1.18,1.63-2.46,2.67-4.09,3.85-2.51,1.88-7.72,4.84-10.83,3.55-2.02-.92-3.12-3.6-3.92-5.55v-.02Z"/>
            <path class="cls-11" d="M579.44,941.19c1.02,1.12,2.33,1.83,3.61,2.57,1.72,1.02,3.37,2.03,5.51,2.55,2.79.76,6.18.48,8.4-1.51,2.2-1.94,2.32-5,.8-7.4-.96-1.52-2.32-2.75-3.8-3.7-.81-.48-1.25-.56-2.27-.62-.89-.05-1.75-.06-2.68-.04-3.16.1-6.71.5-9.71,1.34-.86.27-1.46.65-1.72,1.33-.54,1.85.58,4.03,1.84,5.47l.02.02Z"/>
            <path class="cls-15" d="M574.48,931.71c-.42-.49-.79-.78-1.34-1.07-3.18-1.58-10.04-4.77-15.37-5.37-2.24-.24-4.1.02-6.03.88-3.18,1.25-9.21,4.38-8.42,9.18.28,2.25,1.8,4.19,3.41,5.63,4.9,4.57,12.49,7.18,18.64,5.41,1.39-.41,2.8-.98,4.25-1.63,2.6-1.2,7.04-3.83,7.54-6.82.29-2.2-1.42-4.52-2.67-6.2v-.02Z"/>
            <path class="cls-11" d="M578.41,939.7c.44,1.49.38,3.01.36,4.53,0,2.01.03,3.95-.6,6.05-.51,1.88-1.53,3.72-3.02,5-2.24,2.01-5.6,2.19-7.75-.03-1.28-1.23-2.01-3.02-2.35-4.72-.18-.86-.29-1.68-.31-2.53,0-.96.15-1.38.61-2.29,1.48-2.85,3.45-5.58,5.56-8.02,1.05-1.09,2.3-2.93,3.79-2.61,1.86.57,3.13,2.74,3.71,4.58v.03Z"/>
            <path class="cls-14" d="M569.79,927.11c-.26-1.74,1.1-3.32,2.87-2.5,1.43.75,1.96,2.27,2.66,3.67,1.89,4.06,4.46,9.57,6.16,13.21.53,1.18,1.11,2.35,1.06,3.64-.03.8-.39,1.59-1.05,1.94-.89.47-1.83.13-2.6-.54-1.45-1.4-1.82-2.77-2.94-5.1-1.49-3.29-3.07-6.77-4.53-9.99-.7-1.63-1.43-2.88-1.63-4.32v-.02Z"/>
            <path class="cls-14" d="M570.45,925.22c-1.09-1.88-1.35-7.15-1.13-9.56.11-1.09.35-2,.8-2.82.6-1.03,1.38-1.55,1.66-.56.17.77.02,1.71-.11,2.63-.19,1.23-.44,2.54-.58,3.78-.21,1.6-.27,3.66-.29,4.82-.03.33,0,2.08-.35,1.73h0Z"/>
            <path class="cls-14" d="M571.38,925.35c-.58-2.07-3.97-6.04-5.74-7.66-.82-.74-1.59-1.27-2.46-1.61-2.07-.72-1.96.3-.81,1.38,1.46,1.37,3.31,2.66,4.8,4.06,1.65,1.47,2.5,2.56,3.8,3.74.13.11.41.34.41.1h0Z"/>
          </g>
        </g>
        <g>
          <g>
            <path class="cls-8" d="M849.1,1049.47c-.5,0-1-.06-1.5-.18-3.51-.79-5.81-3.94-6.79-6.61-.7-1.75-.92-3.44-1.06-5.09-.6.38-1.28.59-1.92.59-.44,0-.86-.09-1.23-.28-.74-.38-1.25-1.01-1.48-1.81-.78.42-1.52.75-2.29,1.01-1.3.47-2.71.73-4.03.73-.82,0-1.61-.1-2.36-.29-3.59-.82-5.83-4.05-5.19-7.5.33-2.18,1.68-4.01,2.76-5.15.7-.75,1.34-1.33,2.02-1.83.08-.06.16-.11.24-.16-4.08-4.26-6.18-11.25-5.27-17.93.22-1.99.91-4.78,2.94-6.64,1.2-1.18,2.77-1.79,4.66-1.79,3.43,0,7.07,2.04,8.93,3.26,1.91,1.13,3.32,2.61,4.52,4.77,1.43,2.59,2.65,6.23,3.65,10.84.07-.07.13-.13.2-.2.6-.58,1.37-.94,2.14-1.03.05-.27.1-.54.15-.81.17-.87.34-1.78.47-2.93.14-1,.21-2.08.27-3.11.07-1.06.13-2.15.28-3.18.28-2.09,1.31-2.32,1.73-2.32,1.22,0,1.66,1.54,1.81,2.05.25,1.02.29,2.03.14,3.33-.09.72-.27,1.7-.53,2.78,1.06-.82,2.08-1.51,2.82-1.93,1.14-.64,2.15-.99,3.16-1.1.19-.02.36-.02.52-.02,1.35,0,1.88.53,2.09.97.15.31.31.95-.31,1.71-.65.73-1.53,1.18-2.38,1.61,0,0-.84.41-1.18.58-.8.38-1.62.78-2.37,1.19-1.51.8-3.27,1.99-3.91,2.42.23.35.39.76.48,1.22.13.99-.07,1.87-.39,2.66,2.95-1.35,5.52-2.24,7.69-2.64.87-.16,1.66-.24,2.43-.24,1.48,0,2.87.28,4.49.91,1.57.52,9.58,3.5,8.87,9.46-.17,2.68-1.87,4.98-3.27,6.42-4.08,4.36-9.6,7.06-14.9,7.31-.04,1.65-.34,3.18-.91,4.56-1.1,2.67-3.52,4.39-6.16,4.39Z"/>
            <path class="cls-9" d="M828.58,997.54c3.06,0,6.45,1.83,8.38,3.1,1.82,1.07,3.1,2.45,4.2,4.42,2,3.64,3.26,8.91,3.99,12.74.42-.69.86-1.32,1.42-1.85h.02c.52-.52,1.18-.77,1.8-.77.08,0,.15,0,.23.01.1-.18.21-.37.35-.57.21-1.22.49-2.39.68-4.05.28-2.02.27-4.28.55-6.27.12-.87.41-1.46.74-1.46.27,0,.58.39.85,1.33.22.91.23,1.84.11,2.94-.18,1.42-.71,3.77-1.39,5.8,1.64-1.58,3.82-3.2,5.17-3.97.96-.54,1.84-.87,2.77-.97.14-.01.28-.02.41-.02.96,0,1.58.34,1.01,1.05-.53.59-1.38,1-2.21,1.43-1.11.55-2.32,1.11-3.43,1.71-1.43.76-3.15,1.89-4.1,2.55-.08.05-.23.15-.42.28-.09.18-.18.36-.27.52.41.27.73.71.84,1.36.21,1.6-.72,2.91-1.46,4.29-.08.14-.17.29-.25.44,3.12-1.61,6.92-3.29,10.18-3.9.8-.15,1.54-.22,2.24-.22,1.41,0,2.69.29,4.12.84,2.99.99,8.79,3.84,8.24,8.41-.15,2.25-1.5,4.29-2.99,5.84-3.79,4.05-9.34,7.02-14.99,7.02-.06,0-.12,0-.18,0-.01,0-.02,0-.03,0,.07,1.73-.15,3.52-.83,5.16-.92,2.23-2.91,3.77-5.24,3.77-.41,0-.84-.05-1.27-.15-2.91-.66-5.09-3.26-6.08-5.98-.81-2.04-.94-3.98-1.1-5.97-.03-.32-.06-.64-.09-.96-.37.51-.79.98-1.34,1.33-.43.27-.92.44-1.4.44-.27,0-.54-.06-.79-.18-.89-.45-1.16-1.42-1.06-2.43.01-.07.03-.13.04-.2-1.06.7-2.18,1.33-3.52,1.78-1.17.42-2.44.68-3.71.68-.72,0-1.43-.08-2.11-.26-2.93-.67-5.02-3.31-4.45-6.35.27-1.75,1.31-3.38,2.5-4.65.6-.64,1.2-1.21,1.89-1.71.53-.38.91-.55,1.41-.67-4.78-4.06-6.93-11.58-6.05-18.08.24-2.15.95-4.51,2.62-6.04,1.12-1.1,2.51-1.53,3.98-1.53M828.58,995.54c-2.14,0-3.95.7-5.36,2.07-1.77,1.63-2.88,4.14-3.23,7.24-.88,6.54,1.01,13.38,4.8,17.89-.51.42-1,.89-1.52,1.45-1.16,1.23-2.63,3.22-3.01,5.68-.73,3.98,1.84,7.69,5.98,8.63.78.2,1.66.31,2.56.31,1.44,0,2.96-.28,4.39-.8.49-.16.97-.36,1.46-.58.36.57.87,1.03,1.49,1.34.53.26,1.09.4,1.69.4.35,0,.71-.05,1.07-.14.16,1.29.44,2.61.99,4.01,1.08,2.92,3.61,6.34,7.51,7.22.55.13,1.13.2,1.71.2,3.05,0,5.83-1.96,7.09-5,.51-1.23.82-2.58.94-4.01,5.28-.51,10.66-3.26,14.69-7.57,1.48-1.53,3.31-4,3.52-7.02.58-5.17-4.53-8.8-9.55-10.48-1.7-.65-3.23-.96-4.8-.96-.83,0-1.68.08-2.6.25-1.78.33-3.81.97-6.09,1.91.02-.33,0-.67-.04-1.03v-.05s-.02-.05-.02-.05c-.04-.24-.11-.47-.18-.7.98-.65,2.15-1.38,3.09-1.88.76-.41,1.57-.8,2.35-1.18.35-.17.69-.33,1.02-.5l.18-.09c.89-.45,1.89-.97,2.64-1.79l.04-.04.03-.04c.99-1.23.63-2.35.43-2.77-.27-.57-1.03-1.54-3-1.54-.19,0-.38,0-.58.03-1.2.13-2.32.52-3.57,1.22-.26.15-.55.33-.87.54.02-.13.04-.25.05-.37.17-1.42.12-2.58-.15-3.67v-.04s-.02-.04-.02-.04c-.53-1.84-1.46-2.77-2.77-2.77-.54,0-2.33.23-2.73,3.2-.15,1.05-.22,2.17-.28,3.25-.07,1.06-.13,2.07-.26,3.01-.14,1.16-.3,2.05-.47,2.9,0,.05-.02.1-.03.15-.29.08-.58.2-.85.34-.95-4-2.1-7.21-3.41-9.59-1.27-2.28-2.82-3.92-4.89-5.15-1.96-1.28-5.77-3.4-9.44-3.4h0Z"/>
          </g>
          <g>
            <path class="cls-15" d="M842.81,1025.21c.38-.52.73-.83,1.25-1.16,3.02-1.79,9.52-5.44,14.69-6.4,2.4-.44,4.22-.21,6.37.62,2.99.99,8.79,3.84,8.24,8.41-.15,2.25-1.5,4.29-2.99,5.84-3.83,4.09-9.46,7.08-15.16,7.02-2.01-.02-3.6-.47-5.51-1.11-2.98-.96-8.41-3.51-9.15-6.8-.41-2.19,1.13-4.62,2.27-6.4v-.02Z"/>
            <path class="cls-11" d="M840.66,1031.93c-.33,1.48-.15,2.96-.01,4.44.16,1.99.29,3.93,1.1,5.97.99,2.72,3.18,5.32,6.08,5.98,2.85.68,5.42-1,6.51-3.62.68-1.66.91-3.48.83-5.23-.08-.94-.27-1.34-.8-2.21-.48-.76-.96-1.46-1.52-2.21-1.91-2.52-4.29-5.19-6.7-7.16-.72-.55-1.37-.82-2.08-.64-1.82.62-2.95,2.81-3.4,4.66v.03Z"/>
            <path class="cls-15" d="M845.55,1022.41c.16-.62.18-1.1.1-1.71-.55-3.51-1.9-10.95-4.49-15.65-1.1-1.97-2.38-3.34-4.2-4.42-2.86-1.87-8.89-4.98-12.36-1.57-1.67,1.53-2.39,3.89-2.62,6.04-.9,6.64,1.35,14.35,6.34,18.34,1.14.9,2.42,1.72,3.78,2.53,2.48,1.43,7.19,3.54,9.92,2.22,1.96-1.03,2.87-3.77,3.53-5.76v-.02Z"/>
            <path class="cls-11" d="M841.29,1030.23c-.96,1.22-2.24,2.05-3.49,2.91-1.64,1.16-3.21,2.3-5.29,3-1.83.66-3.92.9-5.82.42-2.93-.67-5.02-3.31-4.45-6.35.27-1.75,1.31-3.38,2.5-4.65.6-.64,1.2-1.21,1.89-1.71.78-.56,1.21-.67,2.22-.82,3.18-.44,6.55-.4,9.75-.09,1.49.23,3.72.19,4.32,1.58.61,1.84-.43,4.13-1.6,5.68l-.02.02Z"/>
            <path class="cls-14" d="M846.58,1015.93c1.27-1.22,3.34-1.02,3.69.9.21,1.6-.72,2.91-1.46,4.29-2.22,3.89-5.23,9.17-7.23,12.66-.66,1.11-1.27,2.26-2.36,2.97-.67.43-1.52.6-2.19.26-.89-.45-1.16-1.42-1.06-2.43.31-1.99,1.21-3.09,2.47-5.34,1.82-3.12,3.76-6.42,5.54-9.47.92-1.51,1.53-2.83,2.58-3.82h.02Z"/>
            <path class="cls-14" d="M848.51,1015.37c.91-1.98,5.06-5.23,7.16-6.44.96-.54,1.84-.87,2.77-.97,1.18-.1,2.06.23,1.42,1.03-.53.59-1.38,1-2.21,1.43-1.11.55-2.32,1.11-3.43,1.71-1.43.76-3.15,1.89-4.1,2.55-.29.17-1.69,1.21-1.61.71h0Z"/>
            <path class="cls-14" d="M848.94,1016.21c1.35-1.66,2.64-6.73,2.94-9.11.13-1.1.12-2.03-.11-2.94-.6-2.11-1.38-1.43-1.59.14-.28,1.98-.26,4.24-.55,6.27-.25,2.19-.65,3.52-.86,5.26,0,.17-.04.53.16.39h0Z"/>
          </g>
        </g>
      </g>
      <g>
        <g>
          <g>
            <rect class="cls-8" x="1" y="33.69" width="72.5" height="1082" rx="34.64" ry="34.64"/>
            <path class="cls-9" d="M38.86,34.69c18.58,0,33.64,15.06,33.64,33.64v1012.72c0,18.58-15.06,33.64-33.64,33.64h-3.23c-18.58,0-33.64-15.06-33.64-33.64V68.33c0-18.58,15.06-33.64,33.64-33.64h3.23M38.86,32.69h-3.23C15.99,32.69,0,48.68,0,68.33v1012.72c0,19.65,15.99,35.64,35.64,35.64h3.23c19.65,0,35.64-15.99,35.64-35.64V68.33c0-19.65-15.99-35.64-35.64-35.64h0Z"/>
          </g>
          <path class="cls-2" d="M57.75,134.59v182.96"/>
          <path class="cls-2" d="M38.69,278.29v94.36"/>
          <path class="cls-2" d="M27.45,134.59v115.25"/>
          <path class="cls-2" d="M55.71,884.42v115.25"/>
          <path class="cls-2" d="M25.75,625.83v115.25"/>
          <path class="cls-2" d="M19.96,337.71v115.25"/>
          <path class="cls-2" d="M57.75,467.73v148.74"/>
          <path class="cls-2" d="M29.16,801.94v148.74"/>
          <path class="cls-2" d="M44.48,737.48v115.25"/>
          <path class="cls-2" d="M23.03,974.45v115.25"/>
          <path class="cls-2" d="M57.75,671.93v115.25"/>
          <path class="cls-2" d="M37.25,422.35v155.94"/>
        </g>
        <g>
          <g>
            <rect class="cls-8" x="1081.72" y="33.69" width="72.5" height="1082" rx="34.64" ry="34.64"/>
            <path class="cls-9" d="M1119.58,34.69c18.58,0,33.64,15.06,33.64,33.64v1012.72c0,18.58-15.06,33.64-33.64,33.64h-3.23c-18.58,0-33.64-15.06-33.64-33.64V68.33c0-18.58,15.06-33.64,33.64-33.64h3.23M1119.58,32.69h-3.23c-19.65,0-35.64,15.99-35.64,35.64v1012.72c0,19.65,15.99,35.64,35.64,35.64h3.23c19.65,0,35.64-15.99,35.64-35.64V68.33c0-19.65-15.99-35.64-35.64-35.64h0Z"/>
          </g>
          <path class="cls-2" d="M1138.47,134.59v182.96"/>
          <path class="cls-2" d="M1119.41,278.29v94.36"/>
          <path class="cls-2" d="M1108.17,134.59v115.25"/>
          <path class="cls-2" d="M1136.43,884.42v115.25"/>
          <path class="cls-2" d="M1106.47,625.83v115.25"/>
          <path class="cls-2" d="M1100.68,337.71v115.25"/>
          <path class="cls-2" d="M1138.47,467.73v148.74"/>
          <path class="cls-2" d="M1109.88,801.94v148.74"/>
          <path class="cls-2" d="M1125.2,737.48v115.25"/>
          <path class="cls-2" d="M1103.75,974.45v115.25"/>
          <path class="cls-2" d="M1138.47,671.93v115.25"/>
          <path class="cls-2" d="M1117.97,422.35v155.94"/>
        </g>
        <g>
          <g>
            <path class="cls-8" d="M36.91,1h1080.68c19.12,0,34.64,15.52,34.64,34.64v3.23c0,19.12-15.52,34.64-34.64,34.64H36.91c-19.12,0-34.64-15.52-34.64-34.64v-3.23C2.27,16.52,17.79,1,36.91,1Z"/>
            <path class="cls-9" d="M36.91,2h1080.68c18.58,0,33.64,15.06,33.64,33.64v3.23c0,18.58-15.06,33.64-33.64,33.64H36.91c-18.58,0-33.64-15.06-33.64-33.64v-3.23C3.27,17.06,18.33,2,36.91,2M36.91,0C17.26,0,1.27,15.99,1.27,35.64v3.23c0,19.65,15.99,35.64,35.64,35.64h1080.68c19.65,0,35.64-15.99,35.64-35.64v-3.23C1153.23,15.99,1137.24,0,1117.59,0H36.91Z"/>
          </g>
          <path class="cls-2" d="M1045.05,57.75c-2.99,0-84.72,0-141.26,0-30.2,0-53.21,0-53.21,0"/>
          <path class="cls-2" d="M892.31,38.69h-100.3"/>
          <path class="cls-2" d="M1045.05,27.45c-2.89,0-122.5,0-122.5,0"/>
          <path class="cls-2" d="M248.04,55.71c-2.89,0-122.5,0-122.5,0"/>
          <path class="cls-2" d="M522.89,25.75c-2.89,0-122.5,0-122.5,0"/>
          <path class="cls-2" d="M829.14,19.96c-2.89,0-122.5,0-122.5,0"/>
          <path class="cls-2" d="M690.95,57.75c-3.73,0-158.1,0-158.1,0"/>
          <path class="cls-2" d="M335.7,29.16c-3.73,0-158.1,0-158.1,0"/>
          <path class="cls-2" d="M404.22,44.48c-2.89,0-122.5,0-122.5,0"/>
          <path class="cls-2" d="M152.33,23.03c-2.89,0-122.5,0-122.5,0"/>
          <path class="cls-2" d="M473.89,57.75c-2.89,0-122.5,0-122.5,0"/>
          <path class="cls-2" d="M739.18,37.25c-3.92,0-165.76,0-165.76,0"/>
        </g>
        <g>
          <g>
            <path class="cls-8" d="M36.91,1078.44h1080.68c19.12,0,34.64,15.52,34.64,34.64v3.23c0,19.12-15.52,34.64-34.64,34.64H36.91c-19.12,0-34.64-15.52-34.64-34.64v-3.23c0-19.12,15.52-34.64,34.64-34.64Z"/>
            <path class="cls-9" d="M36.91,1079.44h1080.68c18.58,0,33.64,15.06,33.64,33.64v3.23c0,18.58-15.06,33.64-33.64,33.64H36.91c-18.58,0-33.64-15.06-33.64-33.64v-3.23c0-18.58,15.06-33.64,33.64-33.64M36.91,1077.44c-19.65,0-35.64,15.99-35.64,35.64v3.23c0,19.65,15.99,35.64,35.64,35.64h1080.68c19.65,0,35.64-15.99,35.64-35.64v-3.23c0-19.65-15.99-35.64-35.64-35.64H36.91Z"/>
          </g>
          <path class="cls-2" d="M1045.05,1135.19c-2.99,0-84.72,0-141.26,0-30.2,0-53.21,0-53.21,0"/>
          <path class="cls-2" d="M892.31,1116.13c-2.37,0-100.3,0-100.3,0"/>
          <path class="cls-2" d="M1045.05,1104.9c-2.89,0-122.5,0-122.5,0"/>
          <path class="cls-2" d="M248.04,1133.15c-2.89,0-122.5,0-122.5,0"/>
          <path class="cls-2" d="M522.89,1103.19c-2.89,0-122.5,0-122.5,0"/>
          <path class="cls-2" d="M829.14,1097.41c-2.89,0-122.5,0-122.5,0"/>
          <path class="cls-2" d="M690.95,1135.19c-3.73,0-158.1,0-158.1,0"/>
          <path class="cls-2" d="M335.7,1106.6c-3.73,0-158.1,0-158.1,0"/>
          <path class="cls-2" d="M404.22,1121.92c-2.89,0-122.5,0-122.5,0"/>
          <path class="cls-2" d="M152.33,1100.47c-2.89,0-122.5,0-122.5,0"/>
          <path class="cls-2" d="M473.89,1135.19c-2.89,0-122.5,0-122.5,0"/>
          <path class="cls-2" d="M739.18,1114.69c-3.92,0-165.76,0-165.76,0"/>
        </g>
      </g>
    </g>
  </g>
</svg>