<?xml version="1.0" encoding="UTF-8"?>
<svg id="Layer_2" data-name="Layer 2" xmlns="http://www.w3.org/2000/svg" xmlns:xlink="http://www.w3.org/1999/xlink" viewBox="0 0 138.68 138.68">
  <defs>
    <style>
      .cls-1 {
        fill: #4c2917;
        stroke: #2d1306;
      }

      .cls-1, .cls-2, .cls-3 {
        stroke-miterlimit: 10;
      }

      .cls-2, .cls-4 {
        fill: #563523;
      }

      .cls-2, .cls-3 {
        stroke: #1e0e05;
        stroke-width: 3px;
      }

      .cls-5 {
        fill: #1e0e05;
      }

      .cls-6 {
        filter: url(#drop-shadow-1);
      }

      .cls-7 {
        fill: #fafffa;
      }

      .cls-8 {
        fill: #281206;
      }

      .cls-3 {
        fill: #7493e2;
      }

      .cls-9 {
        fill: #ffc5a0;
      }
    </style>
    <filter id="drop-shadow-1" x="-12.24" y="-8.29" width="163" height="163" filterUnits="userSpaceOnUse">
      <feOffset dx="0" dy="4"/>
      <feGaussianBlur result="blur" stdDeviation="4"/>
      <feFlood flood-color="#000" flood-opacity=".75"/>
      <feComposite in2="blur" operator="in"/>
      <feComposite in="SourceGraphic"/>
    </filter>
  </defs>
  <g id="Layer_1-2" data-name="Layer 1">
    <g class="cls-6">
      <circle class="cls-3" cx="69.34" cy="69.34" r="67.84"/>
      <g>
        <path class="cls-2" d="M20.58,92.71c-.65,4.67.61,11.05,5.57,14.3.8.54,2.49,1.62,3.13,1.05.14-.22-.07-.59-.3-1.18-.18-.46-.38-1.09-.52-1.83-.16-.53-.38-3.59.04-3.46.65,1.7,1.38,3.93,4.34,6.29.54.42,1.13.81,1.72,1.16,1.77,1.07,3.96,1.77,5.76,2.01.67.05,1.53.29,1.85-.09.05-.09.05-.19.02-.29-.11-.49-.86-1.49-1.41-2.53-.38-.73-.9-1.68-1.02-2.11-.03-.1-.07-.23.07-.08.57.69,1.5,1.7,2.35,2.22,4.66,3.29,11.05,3.38,16.57,3.02,2.37-.11,5.95-.67,7.85-1.29.8-.24,1.1-.45,1.64-.63.31-.06.61.1.94.18,2.51.95,12.36,2.98,17.06,2.1,1.58-.15,5.61-1.47,7.81-2.91.99-.56,2.13-1.44,2.88-2.05.35-.28.53-.43.75-.47.41.18-.53,1.72-.77,2.13-.42.81-1.97,2.62-1.67,2.96.09.13.25.17.43.2.5.04,1.07,0,1.63-.1,4.78-.91,8.09-2.52,11.05-6.51.45-.58,1.03-1.34.88-.13-.15,1.05-.79,2.63-1.04,3.63-.15.56.32.42.65.29,4.02-1.48,8.64-4.77,9.29-10.23.31-2.02-.2-3.85-.42-5.84-.89-6.36-1.83-11.39-2.6-18.27C108.66,5.91,29.34,9.05,23.49,75.89c-.81,5.93-2.08,11.08-2.9,16.79v.04Z"/>
        <path class="cls-9" d="M42.21,56.8c-3.47,3.33-3.74,20.92-1.84,27.81-2.98,28.26,28.82,34.84,47.6,26.08,8.05-3.76,10.1-14.41,9.79-22.65.61-6.8,3.26-17.51.41-26.76-4.47-12.8-39.2-16.15-55.97-4.49Z"/>
        <g>
          <path class="cls-4" d="M97.6,52.43c-3.29-6.16-8.89-11.08-15.87-13.35-8.63-2.81-17.11-2.81-25.21,0-6.99,2.42-12.54,7.33-15.72,13.51,6.77-3.95,17.04-6.47,28.55-6.47s21.49,2.45,28.26,6.31Z"/>
          <path class="cls-4" d="M55.11,49.67c-.03.23-1.47,10.76,3.28,15.84,1.89,2.02,4.53,2.93,7.84,2.7-.26-1.44-2.17-12.74.6-19.39l.38-.92-.12.99c-.01.1-1.09,9.79,3.94,15.37,2.36,2.62,5.69,3.94,9.91,3.94.03,0,.05,0,.08,0-.46-1.63-3.94-14.11-3.41-19.69l.08-.83.19.81s1.04,4.25,4.31,9.14c3,4.48,8.57,10.47,18.02,13.56.09-.39.34-1.56.5-3.23.54-5.48-.63-10.86-3.12-15.52-6.77-3.86-16.92-6.31-28.26-6.31s-21.78,2.52-28.55,6.47c-1.67,3.24-2.68,6.83-2.92,10.6-.15,2.4.04,4.66.55,6.72,1.49-.54,14.31-5.59,16.41-20.29,0,0,0,0,0,0l.14.02h0s0,0,0,0l.14.02s0,0,0,0Z"/>
          <path class="cls-5" d="M37.74,63.19h0c.23-3.73,1.23-7.27,2.86-10.47-.08.05-.16.09-.24.14-1.57,3.17-2.53,6.66-2.76,10.32h.14Z"/>
          <path class="cls-5" d="M100.86,67.97c-.21,2.11-.54,3.4-.54,3.4-18.55-5.99-22.57-22.85-22.57-22.85-.56,5.99,3.46,19.82,3.46,19.82-16.57.21-14.25-19.46-14.25-19.46-2.96,7.12-.56,19.46-.56,19.46-14.32,1.13-11.42-18.69-11.42-18.69h0c-2.26,15.8-16.64,20.45-16.64,20.45-.59-2.28-.73-4.62-.59-6.91h-.14c-.15,2.48.05,4.82.6,6.94l.04.14.14-.05c.14-.04,12.95-4.35,16.26-18.06-.14,3.53.15,9.89,3.56,13.53,1.98,2.12,4.75,3.05,8.22,2.78h.15s-.03-.16-.03-.16c-.02-.12-2.17-11.38.22-18.49-.13,2.63-.09,9.99,4.08,14.62,2.46,2.73,5.94,4.09,10.38,4.03h.18s-.05-.18-.05-.18c-.04-.13-3.67-12.71-3.5-18.96.45,1.45,1.66,4.76,4.12,8.44,3.04,4.55,8.69,10.62,18.31,13.73l.14.05.04-.14s.34-1.33.54-3.42c.52-5.25-.5-10.56-2.89-15.25-.07-.04-.15-.09-.22-.13,2.4,4.61,3.51,9.9,2.97,15.37Z"/>
          <path class="cls-5" d="M38.33,70.1s14.39-4.65,16.64-20.45l-.14-.02s0,0,0,0c-2.1,14.69-14.92,19.75-16.41,20.29-.51-2.06-.7-4.32-.55-6.72.23-3.77,1.25-7.36,2.92-10.6-.07.04-.13.08-.2.12-1.62,3.2-2.63,6.74-2.86,10.47h0s0,0,0,0h0c-.14,2.29,0,4.63.59,6.91Z"/>
          <path class="cls-5" d="M100.72,67.95c-.17,1.68-.41,2.84-.5,3.23-9.45-3.1-15.01-9.08-18.02-13.56-3.27-4.89-4.3-9.1-4.31-9.14l-.19-.81-.08.83c-.53,5.59,2.95,18.07,3.41,19.69-.03,0-.05,0-.08,0-4.22,0-7.55-1.33-9.91-3.94-5.03-5.58-3.95-15.27-3.94-15.37l.12-.99-.38.92c-2.77,6.65-.86,17.95-.6,19.39-3.31.23-5.95-.68-7.84-2.7-4.75-5.08-3.31-15.61-3.28-15.84,0,0,0,0,0,0l-.14-.02s-2.89,19.82,11.42,18.69c0,0-2.4-12.34.56-19.46,0,0-2.33,19.68,14.25,19.46,0,0-4.02-13.82-3.46-19.82,0,0,4.02,16.85,22.57,22.85,0,0,.33-1.29.54-3.4.54-5.46-.58-10.76-2.97-15.37-.1-.06-.19-.11-.29-.17,2.49,4.66,3.67,10.03,3.12,15.52Z"/>
        </g>
        <g>
          <g>
            <ellipse class="cls-7" cx="83.37" cy="81.56" rx="6.38" ry="7.83"/>
            <ellipse class="cls-8" cx="82.46" cy="81.56" rx="5.04" ry="6.18"/>
            <ellipse class="cls-7" cx="79.99" cy="79.39" rx=".88" ry="1.08"/>
            <path class="cls-1" d="M90.97,82.23c.09,0,.18-.02.27-.05.35-.15.39-.52.37-.9-.44-9.16-8.94-12.47-14.02-6.59-.25.29-.52.55-.38.9.14.35.65.66.9.38,5.48-6.21,12.25-1.17,12.22,5.85,0,.29.37.42.64.42Z"/>
          </g>
          <g>
            <ellipse class="cls-7" cx="55.3" cy="81.56" rx="6.38" ry="7.83"/>
            <ellipse class="cls-8" cx="56.22" cy="81.56" rx="5.04" ry="6.18"/>
            <ellipse class="cls-7" cx="58.69" cy="79.39" rx=".88" ry="1.08"/>
            <path class="cls-1" d="M47.71,82.23c-.09,0-.18-.02-.27-.05-.35-.15-.39-.52-.37-.9.44-9.16,8.94-12.47,14.02-6.59.25.29.52.55.38.9-.14.35-.65.66-.9.38-5.48-6.21-12.25-1.17-12.22,5.85,0,.29-.37.42-.64.42Z"/>
          </g>
        </g>
        <path class="cls-1" d="M71.02,104.29c-4,0-6.86-2.58-6.9-2.62-.17-.16-.18-.42-.02-.58.16-.17.42-.18.59-.02.24.22,5.96,5.36,12.5-.02.18-.15.44-.12.58.06.15.18.12.44-.06.58-2.38,1.95-4.68,2.6-6.69,2.6Z"/>
        <path class="cls-1" d="M70.49,92.71c.27.42.98.99.45,1.18-.29.11-1.32-.24-1.58-1.02-.13-.41.29-1.26.6-1.26s.3.74.53,1.1Z"/>
      </g>
    </g>
  </g>
</svg>