<?xml version="1.0" encoding="UTF-8"?>
<svg id="Layer_2" data-name="Layer 2" xmlns="http://www.w3.org/2000/svg" xmlns:xlink="http://www.w3.org/1999/xlink" viewBox="0 0 138.68 138.68">
  <defs>
    <style>
      .cls-1 {
        fill: #ae5028;
      }

      .cls-1, .cls-2, .cls-3, .cls-4, .cls-5, .cls-6, .cls-7 {
        stroke-miterlimit: 10;
      }

      .cls-1, .cls-2, .cls-4, .cls-5, .cls-6 {
        stroke: #190900;
      }

      .cls-2 {
        fill: #191e0c;
      }

      .cls-2, .cls-5, .cls-6 {
        stroke-width: 2px;
      }

      .cls-3 {
        stroke: #ed9677;
      }

      .cls-3, .cls-8 {
        fill: #190900;
      }

      .cls-4, .cls-5 {
        fill: #2e311c;
      }

      .cls-9 {
        filter: url(#drop-shadow-1);
      }

      .cls-6 {
        fill: #070707;
      }

      .cls-7 {
        fill: #e57373;
        stroke: #1e0e05;
        stroke-width: 3px;
      }
    </style>
    <filter id="drop-shadow-1" x="-12.24" y="-8.69" width="163" height="164" filterUnits="userSpaceOnUse">
      <feOffset dx="0" dy="4"/>
      <feGaussianBlur result="blur" stdDeviation="4"/>
      <feFlood flood-color="#000" flood-opacity=".75"/>
      <feComposite in2="blur" operator="in"/>
      <feComposite in="SourceGraphic"/>
    </filter>
  </defs>
  <g id="Layer_1-2" data-name="Layer 1">
    <g class="cls-9">
      <circle class="cls-7" cx="69.34" cy="69.34" r="67.84"/>
      <g>
        <g>
          <path class="cls-2" d="M97.39,25.1c.8.93.97,2.23,1.33,3.37.53,1.92,1.19,4.58,1.74,7.75.87,4.76,1.41,11.28.96,16.58-.31,4.78-1.57,9.62-4.64,13.36-.86,1.03-1.76,1.83-2.87,2.47-.86.46-.97.31-2.21-.94-5.6-5.75-11.97-12.25-17.44-17.89-.69-.7-.62-1.06-.06-1.73,2.12-2.66,10.75-13.36,16.15-19.37,1.74-1.71,4.58-6.04,7-3.62l.02.03Z"/>
          <path class="cls-5" d="M87.11,51.87s7.83-16.87,9.2-20.23c0,0,4.47,15.96.36,29.93,0,0-5.03-7.32-9.55-9.71Z"/>
        </g>
        <g>
          <path class="cls-2" d="M41.85,25.1c-.8.93-.97,2.23-1.33,3.37-.53,1.92-1.19,4.58-1.74,7.75-.87,4.76-1.41,11.28-.96,16.58.31,4.78,1.57,9.62,4.64,13.36.86,1.03,1.76,1.83,2.87,2.47.86.46.97.31,2.21-.94,5.6-5.75,11.97-12.25,17.44-17.89.69-.7.62-1.06.06-1.73-2.12-2.66-10.75-13.36-16.15-19.37-1.74-1.71-4.58-6.04-7-3.62l-.02.03Z"/>
          <path class="cls-5" d="M52.13,51.87s-7.83-16.87-9.2-20.23c0,0-4.47,15.96-.36,29.93,0,0,5.03-7.32,9.55-9.71Z"/>
        </g>
        <path class="cls-2" d="M117.41,78.53c-1.75-.69-4.94-2.48-4.94-2.48-4.04-2.06-9.39-10.94-9.39-10.94l-4.07-6.61s-2.44-4.37-3.46-5.39c-1.02-1.02-2.19-.41-2.19-.41l1.58-5.49-4.98,3.15c-4.29-5.78-14.16-5.98-18.51-5.76-1.42.07-2.83.07-4.25,0-4.35-.22-14.21-.02-18.51,5.76l-4.98-3.15,1.58,5.49s-1.17-.61-2.19.41c-1.02,1.02-3.46,5.39-3.46,5.39l-4.07,6.61s-5.35,8.88-9.39,10.94c0,0-3.2,1.79-4.94,2.48,0,0,.51,3.56,8.13,5.28,0,0-4.37,3.76-8.13,4.37,0,0,1.42,4.98,13.62,9.96l-4.27,2.13s1.24,2.34,8.56,5.72c7.99,3.7,16.72,5.56,25.53,5.56h4.64s4.64,0,4.64,0c8.81,0,17.53-1.86,25.53-5.56,7.32-3.39,8.56-5.72,8.56-5.72l-4.27-2.13c12.2-4.98,13.62-9.96,13.62-9.96-3.76-.61-8.13-4.37-8.13-4.37,7.62-1.73,8.13-5.28,8.13-5.28Z"/>
        <g>
          <g>
            <ellipse class="cls-1" cx="56.73" cy="74.81" rx="8.35" ry="10.25"/>
            <ellipse class="cls-3" cx="58.92" cy="75.92" rx="3.96" ry="4.87"/>
            <path class="cls-2" d="M63.69,64.7s7.7,20.92-20.35-2.48"/>
          </g>
          <g>
            <ellipse class="cls-1" cx="81.95" cy="74.81" rx="8.35" ry="10.25"/>
            <ellipse class="cls-3" cx="79.76" cy="75.92" rx="3.96" ry="4.87"/>
            <path class="cls-2" d="M74.99,64.7s-7.7,20.92,20.35-2.48"/>
          </g>
        </g>
        <g>
          <path class="cls-5" d="M87.33,100.55c0,5.96-8.05,13.77-17.99,13.77s-17.99-7.81-17.99-13.77,8.05-10.8,17.99-10.8,17.99,4.83,17.99,10.8Z"/>
          <path class="cls-8" d="M78.56,106.83c-2.8-2.41-5.6-3.75-8.35-3.98v-3.82c0-.33-.27-.6-.6-.6s-.6.27-.6.6v3.79c-.23,0-.47.02-.7.05-4.58.47-7.25,3.9-7.36,4.05-.2.26-.15.64.11.84.26.2.64.15.84-.11.02-.03,2.49-3.17,6.55-3.59,3-.3,6.14.93,9.32,3.67.11.1.25.15.39.15.17,0,.33-.07.45-.21.22-.25.19-.63-.06-.84Z"/>
          <g>
            <path class="cls-6" d="M76.92,92.53c0,2.36-3.4,5.91-7.58,5.91s-7.58-3.55-7.58-5.91,3.4-4.27,7.58-4.27,7.58,1.91,7.58,4.27Z"/>
            <path class="cls-4" d="M72.93,90.74c0,.56-1.61,1.4-3.6,1.4s-3.6-.84-3.6-1.4,1.61-1.01,3.6-1.01,3.6.45,3.6,1.01Z"/>
          </g>
        </g>
      </g>
    </g>
  </g>
</svg>